<svg id="svg" version="1.1" width="1000" height="361" xmlns="http://www.w3.org/2000/svg" xmlns:xlink="http://www.w3.org/1999/xlink" style="display: block;"><g id="svgg"><path id="path0" d="M174.625 50.025 C 173.538 50.206,172.098 50.619,171.425 50.941 C 170.751 51.263,169.435 51.840,168.500 52.224 C 167.565 52.608,166.800 53.044,166.800 53.193 C 166.800 53.343,166.305 53.718,165.700 54.028 C 163.038 55.391,158.783 61.226,158.208 64.301 C 158.054 65.126,157.720 66.053,157.464 66.361 C 156.837 67.120,156.828 77.265,157.454 78.039 C 157.703 78.347,158.042 79.229,158.207 79.998 C 158.589 81.782,159.602 83.981,160.500 84.975 C 160.885 85.402,161.200 85.954,161.200 86.203 C 161.200 86.452,161.605 87.048,162.100 87.527 C 162.595 88.006,163.270 88.672,163.600 89.006 C 165.481 90.912,169.061 93.200,170.162 93.200 C 170.513 93.200,170.800 93.358,170.800 93.551 C 170.800 95.454,189.454 95.580,190.772 93.686 C 190.898 93.506,191.838 93.045,192.861 92.661 C 193.885 92.277,195.175 91.567,195.728 91.082 C 196.281 90.597,197.154 89.832,197.667 89.381 C 199.131 88.097,200.384 86.473,201.432 84.501 C 201.964 83.502,202.563 82.485,202.765 82.242 C 204.036 80.709,204.710 72.371,203.958 67.477 C 203.171 62.352,197.555 53.600,195.055 53.600 C 194.742 53.600,194.387 53.342,194.266 53.028 C 194.145 52.713,193.001 52.133,191.723 51.739 C 190.445 51.344,189.297 50.878,189.171 50.701 C 188.483 49.742,178.962 49.299,174.625 50.025 M360.019 50.037 C 359.039 50.229,357.662 50.659,356.958 50.993 C 356.255 51.327,355.426 51.600,355.118 51.600 C 353.221 51.600,345.200 59.055,345.200 60.818 C 345.200 61.028,345.042 61.200,344.849 61.200 C 344.409 61.200,343.766 62.798,343.158 65.400 C 342.901 66.500,342.536 67.571,342.346 67.780 C 341.852 68.323,341.903 77.600,342.400 77.600 C 342.620 77.600,342.800 77.930,342.800 78.334 C 342.800 79.645,344.426 84.061,345.223 84.917 C 345.650 85.376,346.000 85.974,346.000 86.246 C 346.000 86.519,346.450 87.096,347.000 87.529 C 347.550 87.961,348.000 88.480,348.000 88.681 C 348.000 89.433,353.674 93.153,354.867 93.183 C 355.233 93.192,355.600 93.401,355.682 93.647 C 356.399 95.797,371.198 95.573,375.633 93.346 C 376.669 92.826,377.714 92.400,377.955 92.400 C 378.196 92.400,378.618 92.040,378.893 91.600 C 379.168 91.160,379.574 90.800,379.796 90.799 C 381.320 90.797,384.000 86.885,384.000 84.663 C 384.000 81.818,383.709 81.825,380.875 84.744 C 379.624 86.034,377.970 87.409,377.200 87.800 C 376.430 88.191,375.704 88.659,375.587 88.838 C 375.470 89.018,374.308 89.443,373.003 89.782 C 365.591 91.713,359.200 88.553,355.649 81.200 L 354.200 78.200 354.200 71.161 C 354.200 66.499,354.362 63.797,354.679 63.161 C 354.942 62.632,355.563 61.210,356.059 60.000 C 357.161 57.311,359.137 55.125,361.343 54.152 C 362.255 53.751,363.128 53.237,363.285 53.011 C 363.715 52.393,370.892 52.475,371.100 53.100 C 371.192 53.375,371.529 53.600,371.849 53.600 C 374.873 53.600,379.840 59.114,380.882 63.628 C 381.296 65.419,381.441 65.600,382.469 65.600 L 383.600 65.600 383.600 57.600 L 383.600 49.600 382.400 49.600 C 381.740 49.600,381.200 49.767,381.200 49.971 C 381.200 51.383,376.834 52.061,375.998 50.779 C 375.370 49.817,363.869 49.282,360.019 50.037 M206.400 50.800 C 206.400 51.338,206.667 51.600,207.213 51.600 C 211.579 51.600,211.643 51.920,211.512 73.298 C 211.386 93.905,211.581 92.720,208.241 93.097 C 206.783 93.261,206.400 93.460,206.400 94.052 C 206.400 94.771,207.074 94.800,223.966 94.800 L 241.532 94.800 241.791 91.700 C 241.934 89.995,242.209 88.240,242.403 87.800 C 242.597 87.360,242.872 86.055,243.015 84.900 L 243.275 82.800 242.038 82.800 C 241.164 82.800,240.800 82.990,240.800 83.448 C 240.800 90.113,226.238 95.429,223.634 89.715 C 222.931 88.172,223.043 55.551,223.757 53.841 C 224.329 52.471,225.925 51.600,227.860 51.600 C 228.533 51.600,228.800 51.373,228.800 50.800 C 228.800 50.019,228.533 50.000,217.600 50.000 C 206.667 50.000,206.400 50.019,206.400 50.800 M245.200 50.753 C 245.200 51.309,245.662 51.621,246.972 51.951 C 250.907 52.942,254.410 58.484,252.451 60.620 C 252.260 60.829,251.708 65.680,251.224 71.400 C 250.741 77.120,250.192 82.160,250.004 82.600 C 249.816 83.040,249.554 84.480,249.422 85.800 C 248.979 90.227,246.899 93.200,244.246 93.200 C 243.867 93.200,243.600 93.530,243.600 94.000 C 243.600 94.773,243.867 94.800,251.600 94.800 C 259.223 94.800,259.600 94.764,259.600 94.032 C 259.600 93.489,259.219 93.182,258.300 92.986 C 254.010 92.068,253.722 91.038,254.392 78.996 C 254.679 73.828,255.069 69.600,255.257 69.600 C 255.446 69.600,255.603 68.385,255.606 66.900 C 255.609 65.415,255.787 63.930,256.000 63.600 C 256.342 63.070,256.388 63.072,256.394 63.615 C 256.397 63.954,256.772 64.944,257.226 65.815 C 257.681 66.687,258.428 68.390,258.886 69.600 C 259.344 70.810,259.848 71.890,260.006 72.000 C 260.164 72.110,260.702 73.415,261.201 74.900 C 261.700 76.385,262.249 77.600,262.421 77.600 C 262.594 77.600,263.124 78.770,263.600 80.200 C 264.076 81.630,264.631 82.800,264.833 82.800 C 265.035 82.800,265.200 83.047,265.200 83.349 C 265.200 83.916,266.260 86.600,267.590 89.400 C 268.008 90.280,268.676 91.854,269.075 92.899 C 270.412 96.401,272.353 95.339,274.007 90.200 C 274.290 89.320,274.743 88.240,275.015 87.800 C 275.287 87.360,275.903 85.787,276.386 84.304 C 276.868 82.822,277.414 81.515,277.600 81.400 C 277.786 81.285,278.338 79.978,278.828 78.496 C 279.318 77.013,279.846 75.710,280.000 75.600 C 280.155 75.490,280.607 74.414,281.004 73.208 C 281.401 72.003,282.126 70.203,282.615 69.208 C 283.104 68.214,283.734 66.684,284.013 65.810 C 284.293 64.935,284.854 63.675,285.259 63.010 L 285.997 61.800 285.999 62.995 C 286.003 66.300,287.260 82.789,287.604 84.046 C 288.879 88.706,287.534 92.470,284.407 92.999 C 283.186 93.205,282.800 93.454,282.800 94.035 C 282.800 94.769,283.229 94.800,293.400 94.800 C 303.777 94.800,304.000 94.783,304.000 93.990 C 304.000 93.415,303.661 93.112,302.833 92.947 C 299.716 92.323,299.100 90.360,298.391 78.800 C 298.141 74.730,297.784 71.040,297.597 70.600 C 297.017 69.234,296.272 54.728,296.723 53.575 C 297.107 52.591,299.226 51.600,300.946 51.600 C 301.333 51.600,301.600 51.274,301.600 50.800 C 301.600 50.028,301.333 50.000,293.864 50.000 L 286.128 50.000 285.576 51.700 C 285.273 52.635,284.804 53.628,284.534 53.907 C 284.264 54.185,283.724 55.490,283.333 56.807 C 282.942 58.123,282.498 59.200,282.345 59.200 C 282.192 59.200,281.677 60.460,281.200 62.000 C 280.723 63.540,280.197 64.800,280.030 64.800 C 279.863 64.800,279.502 65.565,279.228 66.500 C 278.954 67.435,278.132 69.550,277.400 71.200 C 276.668 72.850,275.846 74.965,275.572 75.900 C 275.015 77.798,274.591 78.041,274.174 76.700 C 274.019 76.205,273.455 74.900,272.919 73.800 C 272.382 72.700,271.570 70.810,271.112 69.600 C 270.655 68.390,270.145 67.310,269.979 67.200 C 269.813 67.090,269.298 65.920,268.834 64.600 C 268.371 63.280,267.813 62.140,267.596 62.067 C 267.378 61.993,267.200 61.701,267.200 61.418 C 267.200 60.860,266.126 58.188,264.621 55.000 C 264.101 53.900,263.392 52.325,263.045 51.500 L 262.413 50.000 253.806 50.000 C 245.648 50.000,245.200 50.039,245.200 50.753 M304.400 50.744 C 304.400 51.341,304.779 51.539,306.241 51.703 C 309.600 52.082,309.400 50.775,309.400 72.353 C 309.400 93.822,309.577 92.616,306.358 93.043 C 304.804 93.249,304.400 93.458,304.400 94.052 C 304.400 94.771,305.066 94.800,321.800 94.800 L 339.200 94.800 339.202 93.300 C 339.203 92.475,339.321 90.029,339.465 87.864 L 339.725 83.928 338.776 84.064 C 337.821 84.201,337.476 84.710,336.160 87.928 C 335.700 89.052,335.025 89.875,334.227 90.283 C 333.552 90.629,332.876 91.105,332.724 91.341 C 332.137 92.252,324.704 92.169,323.639 91.239 C 323.110 90.778,322.554 90.400,322.403 90.400 C 321.530 90.400,321.200 87.859,321.200 81.138 L 321.200 73.914 325.700 74.064 C 331.237 74.250,332.511 74.830,333.175 77.468 C 333.543 78.929,333.767 79.200,334.606 79.200 L 335.600 79.200 335.600 72.200 L 335.600 65.200 334.618 65.200 C 333.808 65.200,333.589 65.451,333.366 66.639 C 333.052 68.312,331.191 70.400,330.013 70.400 C 329.566 70.400,329.200 70.580,329.200 70.800 C 329.200 71.040,327.600 71.200,325.200 71.200 L 321.200 71.200 321.200 62.000 L 321.200 52.800 326.200 52.800 C 328.950 52.800,331.200 52.960,331.200 53.157 C 331.200 53.353,331.650 53.626,332.200 53.764 C 333.340 54.050,335.150 56.668,335.697 58.821 C 336.057 60.241,337.467 61.563,337.948 60.933 C 338.088 60.750,338.112 58.260,338.001 55.400 L 337.800 50.200 321.100 50.096 C 304.982 49.995,304.400 50.017,304.400 50.744 M184.320 53.161 C 184.401 53.402,184.666 53.600,184.909 53.600 C 187.619 53.600,191.978 60.905,191.995 65.476 C 191.998 66.178,192.180 66.864,192.400 67.000 C 192.633 67.144,192.800 69.396,192.800 72.400 C 192.800 75.404,192.633 77.656,192.400 77.800 C 192.180 77.936,192.000 78.542,192.000 79.147 C 192.000 80.633,190.423 86.785,189.855 87.514 C 186.666 91.610,183.868 92.825,179.022 92.220 C 174.249 91.624,169.996 86.056,169.115 79.248 C 168.378 73.554,168.941 63.715,170.157 61.058 C 170.730 59.803,171.200 58.647,171.201 58.488 C 171.201 58.330,171.741 57.570,172.400 56.800 C 173.059 56.030,173.599 55.292,173.599 55.161 C 173.600 55.029,174.320 54.597,175.200 54.200 C 176.080 53.803,176.800 53.338,176.800 53.166 C 176.800 52.359,184.051 52.354,184.320 53.161 " stroke="none" fill="#000000" fill-rule="evenodd"></path><path id="path1" d="M55.600 3.168 C 55.600 3.371,54.392 3.666,52.916 3.824 C 51.439 3.982,49.645 4.356,48.929 4.656 C 48.212 4.955,47.107 5.200,46.474 5.200 C 45.841 5.200,44.907 5.561,44.398 6.002 C 43.890 6.442,42.796 6.986,41.968 7.209 C 41.140 7.432,40.403 7.781,40.331 7.984 C 40.259 8.188,39.300 8.587,38.200 8.870 C 37.100 9.154,36.067 9.595,35.904 9.851 C 35.741 10.106,34.841 10.711,33.904 11.195 C 32.967 11.678,31.840 12.388,31.400 12.772 C 30.960 13.156,29.970 13.712,29.200 14.007 C 28.430 14.303,27.159 15.187,26.376 15.972 C 24.781 17.570,22.885 19.200,22.619 19.200 C 22.272 19.200,16.400 25.294,16.400 25.655 C 16.400 25.858,16.130 26.129,15.800 26.255 C 15.470 26.382,15.200 26.640,15.200 26.829 C 15.200 27.018,14.705 27.690,14.100 28.322 C 11.680 30.850,10.800 32.027,10.800 32.735 C 10.800 33.142,10.440 33.802,10.000 34.200 C 9.560 34.598,9.200 35.241,9.200 35.629 C 9.200 36.016,9.050 36.393,8.867 36.467 C 8.315 36.688,6.181 40.870,5.584 42.900 C 5.277 43.945,4.885 44.800,4.713 44.800 C 4.541 44.800,4.400 45.072,4.400 45.405 C 4.400 45.738,4.220 46.368,4.000 46.805 C 3.780 47.242,3.420 47.958,3.200 48.395 C 2.980 48.832,2.800 49.822,2.800 50.595 C 2.800 51.368,2.638 52.000,2.439 52.000 C 1.857 52.000,1.200 54.364,1.200 56.460 C 1.200 57.527,1.020 58.400,0.800 58.400 C 0.252 58.400,0.252 83.461,0.800 83.800 C 1.020 83.936,1.200 84.907,1.200 85.957 C 1.200 87.007,1.325 87.992,1.478 88.145 C 1.631 88.298,1.801 88.730,1.856 89.104 C 1.911 89.479,2.146 89.849,2.378 89.926 C 2.610 90.003,2.800 90.766,2.800 91.621 C 2.800 92.476,3.160 93.817,3.600 94.600 C 4.040 95.383,4.400 96.289,4.400 96.612 C 4.400 96.935,4.580 97.200,4.800 97.200 C 5.020 97.200,5.200 97.732,5.200 98.382 C 5.200 99.033,5.717 100.442,6.350 101.514 C 6.982 102.587,7.735 104.118,8.024 104.917 C 8.313 105.716,9.056 106.961,9.674 107.685 C 10.292 108.408,10.799 109.313,10.799 109.695 C 10.800 110.077,11.520 111.067,12.399 111.895 C 13.279 112.723,13.999 113.559,13.999 113.754 C 14.000 113.949,14.405 114.517,14.900 115.017 C 15.395 115.517,16.430 116.687,17.200 117.617 C 17.970 118.548,18.870 119.564,19.200 119.876 C 19.530 120.188,20.730 121.334,21.867 122.422 C 23.004 123.510,24.121 124.400,24.349 124.400 C 24.577 124.400,25.214 124.850,25.764 125.400 C 26.314 125.950,26.947 126.400,27.172 126.400 C 27.396 126.400,27.859 126.940,28.200 127.600 C 28.553 128.283,29.142 128.800,29.567 128.800 C 29.978 128.800,30.425 129.089,30.561 129.442 C 30.699 129.801,31.064 129.984,31.393 129.858 C 31.715 129.735,32.478 130.046,33.089 130.549 C 34.923 132.061,40.849 134.926,43.118 135.398 C 43.842 135.548,44.781 136.042,45.204 136.496 C 45.821 137.158,46.087 137.226,46.554 136.838 C 47.012 136.458,47.206 136.471,47.468 136.897 C 49.012 139.411,86.817 139.375,88.366 136.857 C 88.599 136.479,88.783 136.449,88.974 136.757 C 89.476 137.570,90.806 137.237,91.200 136.200 C 91.469 135.493,91.880 135.200,92.603 135.200 C 93.165 135.200,93.729 134.930,93.855 134.600 C 93.982 134.270,94.517 134.000,95.045 134.000 C 96.503 134.000,103.424 130.448,104.102 129.351 C 104.269 129.082,104.937 128.746,105.588 128.603 C 106.239 128.460,107.183 127.892,107.686 127.341 C 108.188 126.789,108.842 126.127,109.138 125.869 C 109.434 125.611,110.103 125.009,110.625 124.531 C 111.147 124.053,111.895 123.560,112.287 123.435 C 112.679 123.311,113.900 122.144,115.000 120.842 C 116.100 119.540,117.311 118.386,117.690 118.278 C 118.070 118.169,118.610 117.575,118.890 116.957 C 119.421 115.788,119.682 115.459,122.620 112.263 C 123.599 111.198,124.400 110.011,124.400 109.625 C 124.400 109.240,124.760 108.598,125.200 108.200 C 125.640 107.802,126.000 107.254,126.000 106.983 C 126.000 106.712,126.595 105.615,127.322 104.545 C 128.050 103.475,128.882 102.015,129.171 101.300 C 129.460 100.585,129.838 100.000,130.011 100.000 C 130.184 100.000,130.451 99.080,130.606 97.956 C 130.780 96.689,131.212 95.588,131.744 95.056 C 132.215 94.585,132.618 93.660,132.641 93.000 C 132.663 92.340,133.065 90.360,133.534 88.600 C 134.004 86.840,134.390 84.815,134.394 84.100 C 134.397 83.385,134.575 82.800,134.788 82.800 C 135.361 82.800,135.076 59.960,134.470 57.200 C 133.610 53.285,133.103 51.600,132.785 51.600 C 132.615 51.600,132.569 51.239,132.685 50.798 C 132.800 50.357,132.719 49.772,132.504 49.498 C 131.946 48.787,130.800 45.217,130.800 44.191 C 130.800 43.714,130.454 43.011,130.031 42.628 C 129.449 42.102,129.316 41.598,129.483 40.566 C 129.670 39.414,129.586 39.200,128.947 39.200 C 128.146 39.200,128.124 39.167,126.116 35.101 C 125.410 33.671,124.090 31.713,123.184 30.750 C 122.279 29.788,121.257 28.460,120.914 27.800 C 120.572 27.140,120.036 26.450,119.724 26.268 C 119.411 26.085,118.990 25.500,118.788 24.968 C 118.566 24.384,118.099 24.000,117.610 24.000 C 117.164 24.000,116.800 23.812,116.800 23.583 C 116.800 23.028,110.844 17.200,110.277 17.200 C 110.136 17.200,109.231 16.410,108.265 15.444 C 107.297 14.476,105.945 13.564,105.254 13.412 C 104.564 13.260,104.000 12.961,104.000 12.747 C 104.000 12.533,103.460 12.170,102.800 11.940 C 102.140 11.710,101.600 11.359,101.600 11.161 C 101.600 10.962,101.150 10.800,100.600 10.800 C 100.050 10.800,99.600 10.614,99.600 10.386 C 99.600 10.158,98.745 9.613,97.700 9.175 C 96.655 8.737,95.260 8.134,94.600 7.834 C 91.744 6.536,90.334 6.000,89.781 6.000 C 89.455 6.000,88.877 5.829,88.495 5.619 C 86.704 4.638,84.809 4.044,82.706 3.805 C 81.445 3.661,80.309 3.377,80.183 3.172 C 79.878 2.679,55.600 2.675,55.600 3.168 M74.311 5.985 C 85.760 6.982,99.866 12.806,108.136 19.952 C 112.971 24.129,115.957 27.325,120.325 33.000 C 121.722 34.815,123.407 37.595,125.051 40.801 C 128.213 46.965,128.535 47.866,131.232 58.086 C 133.887 68.149,132.403 84.277,127.783 95.580 C 123.502 106.053,115.708 116.445,107.400 122.757 C 106.520 123.425,105.440 124.252,105.000 124.594 C 99.130 129.158,88.864 133.638,80.284 135.381 C 52.546 141.015,23.752 127.088,10.442 101.600 C -0.969 79.749,0.548 55.280,14.665 33.477 C 16.713 30.314,26.695 20.044,29.555 18.158 C 33.991 15.231,35.583 14.378,38.071 13.593 C 39.540 13.130,40.959 12.490,41.224 12.171 C 41.489 11.852,42.942 11.215,44.453 10.757 C 45.964 10.298,47.200 9.785,47.200 9.617 C 47.200 9.155,51.509 7.589,54.000 7.146 C 55.210 6.931,56.380 6.704,56.600 6.641 C 58.909 5.989,66.638 5.224,68.600 5.453 C 69.260 5.530,71.830 5.769,74.311 5.985 M65.282 10.647 C 65.400 13.786,65.403 13.795,66.600 14.050 L 67.800 14.305 66.700 14.353 C 64.639 14.441,65.591 15.200,67.763 15.200 L 69.926 15.200 70.063 13.100 C 70.315 9.232,70.114 8.528,68.678 8.252 C 67.975 8.116,66.897 7.892,66.282 7.753 L 65.165 7.500 65.282 10.647 M78.356 9.500 C 78.331 9.665,78.343 10.195,78.381 10.678 C 78.508 12.269,77.698 13.200,76.186 13.200 C 75.007 13.200,74.800 13.337,74.800 14.120 C 74.800 14.935,74.959 15.021,76.200 14.876 C 77.102 14.771,77.600 14.881,77.600 15.185 C 77.600 15.445,77.195 15.624,76.700 15.584 C 74.866 15.436,74.660 15.716,76.400 15.992 C 77.390 16.149,78.515 16.414,78.900 16.581 C 79.402 16.800,79.600 16.704,79.600 16.243 C 79.600 15.867,79.932 15.600,80.400 15.600 C 81.382 15.600,81.475 16.384,80.500 16.441 C 80.115 16.463,80.385 16.669,81.100 16.899 C 81.815 17.128,82.401 17.515,82.402 17.758 C 82.404 18.001,82.670 17.691,82.995 17.069 C 83.520 16.063,83.514 15.775,82.942 14.469 C 82.589 13.661,82.326 12.436,82.359 11.747 C 82.426 10.334,78.553 8.160,78.356 9.500 M53.600 10.353 C 52.300 10.583,52.209 10.694,52.327 11.910 C 52.418 12.849,52.172 13.555,51.462 14.400 C 50.092 16.027,50.485 17.779,52.000 16.800 C 52.513 16.469,52.498 16.411,51.900 16.406 C 51.515 16.403,51.200 16.220,51.200 16.000 C 51.200 15.780,51.560 15.600,52.000 15.600 C 52.470 15.600,52.800 15.867,52.800 16.247 C 52.800 16.737,53.017 16.823,53.700 16.601 C 54.195 16.440,55.680 16.170,57.000 16.000 C 60.728 15.520,61.497 15.206,60.583 14.538 C 60.178 14.242,60.061 14.000,60.324 14.000 C 61.652 14.000,60.653 12.393,58.606 11.238 C 56.369 9.976,56.051 9.919,53.600 10.353 M90.241 14.120 C 89.697 14.987,89.108 16.735,88.626 18.910 C 88.398 19.937,88.455 20.001,89.390 19.767 C 90.417 19.509,90.845 20.154,89.900 20.535 C 89.625 20.646,89.760 20.757,90.200 20.781 C 90.640 20.806,91.316 21.065,91.702 21.359 C 92.411 21.896,93.158 21.824,96.978 20.851 C 99.103 20.310,99.200 20.430,99.200 23.607 C 99.200 29.803,103.703 30.007,105.227 23.881 C 105.712 21.933,104.822 20.009,103.430 19.996 C 103.194 19.994,102.210 19.364,101.244 18.596 C 100.278 17.828,99.244 17.200,98.947 17.200 C 98.650 17.200,96.694 16.309,94.600 15.220 L 90.792 13.240 90.241 14.120 M42.400 14.664 C 41.137 15.204,38.406 16.913,32.024 21.154 C 28.203 23.692,27.490 25.489,29.445 27.650 C 30.515 28.832,33.797 27.192,33.307 25.721 C 33.225 25.475,33.347 25.156,33.579 25.013 C 33.810 24.870,34.000 24.943,34.000 25.176 C 34.000 25.409,34.270 25.600,34.600 25.600 C 35.042 25.600,35.200 25.139,35.200 23.849 C 35.200 21.698,35.968 20.875,37.377 21.517 C 37.901 21.755,38.910 21.877,39.619 21.787 C 40.882 21.628,41.790 21.200,40.867 21.200 C 40.610 21.200,40.400 21.045,40.400 20.855 C 40.400 20.666,40.863 20.599,41.429 20.708 C 42.864 20.982,44.356 20.118,44.105 19.158 C 43.996 18.741,44.108 18.400,44.353 18.400 C 44.599 18.400,44.800 18.670,44.800 19.000 C 44.800 19.330,44.980 19.600,45.200 19.600 C 45.420 19.600,45.600 19.301,45.600 18.935 C 45.600 18.084,44.265 13.996,44.000 14.036 C 43.890 14.052,43.170 14.335,42.400 14.664 M58.000 15.247 C 58.000 15.441,57.190 15.600,56.200 15.600 C 54.244 15.600,53.716 14.936,55.500 14.719 C 56.884 14.551,58.000 14.787,58.000 15.247 M105.905 27.583 C 104.136 29.802,103.752 31.200,104.911 31.200 C 105.145 31.200,105.659 31.492,106.054 31.849 C 107.027 32.729,107.918 32.293,108.631 30.588 C 108.958 29.806,109.490 29.064,109.813 28.940 C 110.494 28.678,110.586 27.095,109.986 25.974 C 109.219 24.541,107.922 25.053,105.905 27.583 M24.690 26.854 C 24.310 27.066,24.000 27.520,24.000 27.862 C 24.000 28.802,26.461 31.749,26.794 31.209 C 26.948 30.961,27.316 30.812,27.613 30.879 C 27.910 30.945,28.225 30.664,28.315 30.253 C 28.427 29.734,28.324 29.600,27.977 29.814 C 27.646 30.019,27.577 29.961,27.773 29.644 C 28.482 28.496,25.912 26.170,24.690 26.854 M19.566 32.300 C 17.226 35.180,16.189 37.256,15.848 39.742 C 15.732 40.591,15.313 41.732,14.918 42.279 C 12.626 45.452,12.531 46.437,14.436 47.280 C 15.076 47.563,15.603 47.976,15.606 48.198 C 15.609 48.419,15.785 48.330,15.997 48.000 C 16.209 47.670,16.284 47.085,16.164 46.700 C 16.025 46.253,16.158 46.000,16.530 46.000 C 17.233 46.000,17.724 44.924,17.176 44.585 C 16.962 44.453,16.892 44.174,17.021 43.966 C 17.150 43.757,17.402 43.678,17.582 43.789 C 18.398 44.293,18.949 42.767,18.450 41.387 C 17.851 39.730,18.390 38.430,19.714 38.339 C 20.201 38.306,20.814 38.258,21.075 38.234 C 22.177 38.132,23.708 36.454,23.483 35.595 C 23.317 34.963,23.408 34.794,23.829 34.956 C 24.204 35.100,24.400 34.905,24.400 34.387 C 24.400 33.954,24.580 33.600,24.800 33.600 C 25.532 33.600,25.215 32.949,23.661 31.267 C 21.760 29.207,22.161 29.106,19.566 32.300 M110.550 31.500 C 109.955 32.545,109.168 33.760,108.802 34.200 C 108.135 35.003,107.810 36.787,108.325 36.815 C 115.060 37.185,115.748 38.249,113.615 45.000 C 112.213 49.441,112.191 49.418,116.815 48.163 C 121.295 46.947,122.400 46.326,122.400 45.024 C 122.400 43.997,120.504 39.891,119.924 39.663 C 119.733 39.587,119.112 38.597,118.546 37.463 C 117.021 34.406,113.249 29.600,112.374 29.600 C 111.909 29.600,111.230 30.307,110.550 31.500 M63.859 38.807 C 63.482 40.690,59.595 41.588,57.776 40.213 C 56.284 39.084,54.511 39.413,54.712 40.782 C 55.045 43.049,59.088 44.106,61.887 42.658 C 63.367 41.893,64.000 42.383,64.000 44.293 C 64.000 48.276,65.861 49.327,68.999 47.116 C 71.087 45.644,71.646 44.229,71.102 41.800 C 70.905 40.920,70.810 39.615,70.891 38.900 L 71.039 37.600 67.570 37.600 L 64.100 37.600 63.859 38.807 M74.971 37.954 C 75.353 38.571,77.600 38.722,77.600 38.131 C 77.600 37.789,77.093 37.600,76.176 37.600 C 75.393 37.600,74.851 37.759,74.971 37.954 M80.149 38.212 C 80.533 39.213,78.520 41.109,76.759 41.407 C 75.902 41.552,75.200 41.855,75.200 42.082 C 75.200 42.313,75.594 42.388,76.100 42.252 C 76.595 42.119,77.679 42.008,78.510 42.005 C 80.126 42.000,80.404 41.643,80.931 38.900 C 81.127 37.876,81.046 37.600,80.547 37.600 C 80.143 37.600,79.999 37.822,80.149 38.212 M84.400 38.290 C 84.400 39.806,87.071 40.353,92.320 39.910 C 92.636 39.884,92.793 39.461,92.720 38.833 C 92.561 37.463,84.400 36.930,84.400 38.290 M97.600 38.000 C 97.600 38.220,98.230 38.400,99.000 38.400 C 99.770 38.400,100.400 38.220,100.400 38.000 C 100.400 37.780,99.770 37.600,99.000 37.600 C 98.230 37.600,97.600 37.780,97.600 38.000 M70.400 38.800 C 70.400 39.026,69.267 39.200,67.800 39.200 C 66.333 39.200,65.200 39.026,65.200 38.800 C 65.200 38.574,66.333 38.400,67.800 38.400 C 69.267 38.400,70.400 38.574,70.400 38.800 M92.000 38.744 C 92.000 39.231,85.924 39.291,85.200 38.811 C 84.779 38.531,85.706 38.410,88.300 38.406 C 90.335 38.403,92.000 38.555,92.000 38.744 M97.575 40.564 C 96.010 43.699,97.545 45.676,100.854 44.786 C 103.323 44.121,103.534 41.554,101.186 40.735 C 100.534 40.508,100.000 40.166,100.000 39.975 C 100.000 38.526,98.399 38.915,97.575 40.564 M86.798 41.726 C 85.306 42.470,84.444 48.935,85.769 49.443 C 87.255 50.014,87.894 48.939,88.191 45.371 C 88.507 41.574,88.283 40.986,86.798 41.726 M108.592 43.839 C 108.896 44.851,109.248 45.781,109.373 45.906 C 109.773 46.307,109.616 44.700,109.120 43.328 C 108.393 41.318,107.959 41.738,108.592 43.839 M48.733 43.200 C 48.367 43.603,48.181 44.048,48.322 44.188 C 48.462 44.329,48.332 44.595,48.034 44.779 C 47.345 45.205,47.318 48.178,47.994 48.993 C 49.390 50.675,50.582 48.695,50.127 45.454 C 49.968 44.324,49.883 43.175,49.937 42.900 C 50.075 42.197,49.519 42.335,48.733 43.200 M91.450 43.013 C 90.966 44.275,91.159 45.301,91.833 45.043 C 92.181 44.909,92.643 44.800,92.859 44.800 C 93.076 44.800,93.196 44.307,93.127 43.703 C 92.984 42.470,91.840 41.999,91.450 43.013 M53.532 45.900 C 53.494 46.505,53.439 47.360,53.409 47.800 C 53.340 48.824,54.328 50.400,55.038 50.400 C 56.322 50.400,56.210 46.352,54.899 45.356 C 53.869 44.574,53.608 44.678,53.532 45.900 M81.000 45.315 C 80.341 46.114,80.882 49.370,81.700 49.526 C 82.466 49.671,82.626 48.431,82.150 46.050 C 81.882 44.709,81.632 44.549,81.000 45.315 M58.700 45.431 C 57.716 46.421,58.938 49.540,60.130 49.082 C 60.745 48.846,62.181 46.048,61.855 45.721 C 61.515 45.381,58.981 45.148,58.700 45.431 M75.307 45.700 C 73.790 47.639,74.994 49.246,76.636 47.474 C 77.762 46.261,77.840 45.778,76.967 45.443 C 76.052 45.091,75.746 45.139,75.307 45.700 M42.400 48.370 C 42.400 49.042,43.583 49.377,44.107 48.853 C 44.437 48.523,44.439 48.400,44.113 48.400 C 43.867 48.400,43.381 48.291,43.033 48.157 C 42.684 48.023,42.400 48.119,42.400 48.370 M113.867 51.867 C 113.455 52.278,113.551 52.877,113.985 52.609 C 114.197 52.478,114.692 52.710,115.085 53.125 C 116.513 54.633,117.253 55.681,117.039 55.894 C 116.647 56.286,118.168 58.421,118.696 58.219 C 119.069 58.075,119.145 58.320,118.973 59.111 C 118.793 59.937,118.836 60.056,119.151 59.603 C 119.502 59.100,119.647 59.092,120.083 59.553 C 120.493 59.986,120.496 60.138,120.100 60.283 C 119.825 60.384,119.600 60.729,119.600 61.050 C 119.600 63.545,125.062 64.128,125.688 61.700 C 125.923 60.786,126.257 60.400,126.811 60.400 C 127.750 60.400,127.833 58.998,127.024 56.800 C 126.510 55.402,126.358 55.347,124.353 55.824 C 123.501 56.027,123.149 55.852,122.459 54.883 C 121.754 53.893,121.238 53.647,119.374 53.414 C 117.924 53.233,116.905 52.864,116.479 52.367 C 115.835 51.615,114.394 51.339,113.867 51.867 M43.197 52.805 C 42.348 54.391,42.865 73.366,43.784 74.383 C 44.310 74.963,44.428 75.523,44.240 76.528 C 43.986 77.879,44.834 80.266,46.466 82.800 C 46.820 83.350,47.333 84.790,47.605 86.000 C 47.953 87.548,48.468 88.544,49.343 89.363 C 50.576 90.515,50.579 90.529,49.714 90.915 C 49.233 91.129,48.729 91.813,48.593 92.434 C 48.293 93.796,47.049 94.306,46.170 93.427 C 45.373 92.630,44.045 92.617,43.743 93.405 C 43.380 94.349,43.987 97.655,44.469 97.358 C 44.736 97.192,44.789 97.405,44.616 97.950 C 44.432 98.529,44.518 98.800,44.885 98.800 C 45.181 98.800,45.683 99.160,46.000 99.600 C 46.317 100.040,46.762 100.403,46.988 100.407 C 47.215 100.411,47.837 100.875,48.372 101.438 C 49.170 102.279,49.581 102.418,50.672 102.213 C 51.402 102.076,52.000 102.131,52.000 102.335 C 52.000 102.540,52.378 102.806,52.840 102.926 C 53.302 103.047,53.567 103.329,53.429 103.553 C 53.012 104.228,54.822 104.995,55.289 104.341 C 55.582 103.930,55.621 103.968,55.450 104.500 C 55.326 104.885,55.412 105.200,55.641 105.200 C 55.870 105.200,56.327 105.470,56.657 105.800 C 56.987 106.130,57.784 106.400,58.429 106.400 C 59.073 106.400,59.600 106.580,59.600 106.800 C 59.600 107.337,81.062 107.347,81.393 106.811 C 81.526 106.597,82.301 106.110,83.117 105.730 C 87.978 103.465,90.768 100.847,90.787 98.533 C 90.794 97.617,90.967 96.807,91.170 96.733 C 92.215 96.357,92.656 85.600,91.626 85.600 C 90.463 85.600,89.598 87.172,89.113 90.169 C 88.403 94.555,87.737 94.536,87.431 90.121 C 87.297 88.184,87.019 86.087,86.813 85.460 C 86.479 84.442,86.653 84.042,88.432 81.720 C 92.526 76.378,92.966 73.288,90.409 67.820 C 88.400 63.523,86.370 62.406,83.647 64.100 C 82.382 64.887,81.688 64.996,78.119 64.969 C 73.472 64.934,73.279 65.237,77.192 66.425 C 79.812 67.221,80.061 67.231,82.404 66.630 C 85.470 65.845,86.400 65.836,86.400 66.593 C 86.400 67.682,82.641 69.225,76.751 70.553 L 75.703 70.790 76.690 74.495 C 78.375 80.812,77.682 83.916,74.390 84.803 C 73.575 85.022,72.229 85.741,71.399 86.401 C 69.701 87.751,69.702 87.750,66.791 87.198 C 61.642 86.222,61.843 86.366,59.785 82.191 C 58.757 80.105,58.019 78.128,58.145 77.799 C 58.497 76.882,59.403 77.085,60.009 78.217 C 60.637 79.390,64.365 82.040,66.357 82.729 C 67.594 83.157,67.963 83.074,70.511 81.799 C 72.049 81.030,73.547 80.400,73.840 80.400 C 75.053 80.400,75.686 77.301,74.648 76.440 C 74.345 76.188,73.335 75.906,72.404 75.814 C 70.089 75.583,69.985 75.106,69.516 62.548 C 69.293 56.596,78.318 52.792,86.000 55.600 C 87.204 56.040,88.208 56.400,88.232 56.400 C 88.255 56.400,88.888 57.300,89.637 58.399 C 91.391 60.972,91.599 60.920,91.605 57.900 C 91.608 56.525,91.712 55.022,91.837 54.560 C 92.335 52.702,91.661 52.589,80.972 52.749 C 75.487 52.830,70.010 52.876,68.800 52.850 C 60.012 52.664,51.176 52.370,47.744 52.149 C 43.798 51.895,43.675 51.913,43.197 52.805 M11.865 53.998 C 11.476 54.656,10.700 55.310,10.142 55.450 C 9.428 55.629,8.900 56.234,8.363 57.486 C 7.149 60.318,7.308 61.051,9.200 61.354 C 10.712 61.595,10.800 61.686,10.800 63.005 C 10.800 63.772,10.980 64.400,11.200 64.400 C 11.420 64.400,11.600 63.522,11.600 62.449 C 11.600 61.203,11.817 60.318,12.200 60.000 C 12.542 59.716,12.800 58.844,12.800 57.975 C 12.800 57.135,12.961 56.348,13.158 56.226 C 13.355 56.105,13.584 55.284,13.668 54.403 C 13.859 52.406,12.929 52.197,11.865 53.998 M12.951 54.700 C 12.647 55.968,12.487 56.220,12.181 55.914 C 11.854 55.587,12.429 53.600,12.851 53.600 C 13.051 53.600,13.096 54.095,12.951 54.700 M62.603 56.183 C 64.777 57.078,66.162 60.311,65.847 63.753 C 64.994 73.064,64.605 75.388,63.878 75.528 C 62.774 75.741,62.115 74.945,61.593 72.772 C 61.036 70.447,60.731 70.241,56.607 69.389 C 54.901 69.036,53.212 68.593,52.853 68.404 C 52.494 68.215,51.414 67.770,50.453 67.414 C 49.492 67.059,48.125 66.326,47.415 65.784 C 46.705 65.243,45.950 64.800,45.738 64.800 C 44.463 64.800,43.600 63.128,43.613 60.684 C 43.625 58.220,43.897 57.554,45.358 56.403 C 46.858 55.221,59.863 55.055,62.603 56.183 M36.400 57.200 C 36.400 57.640,36.648 58.000,36.951 58.000 C 37.696 58.000,38.551 56.940,38.054 56.633 C 37.842 56.502,37.577 56.621,37.466 56.898 C 37.305 57.297,37.257 57.297,37.232 56.900 C 37.179 56.062,36.400 56.343,36.400 57.200 M12.000 58.080 C 12.000 58.726,11.882 58.842,11.555 58.515 C 11.310 58.270,11.231 57.874,11.378 57.635 C 11.792 56.965,12.000 57.114,12.000 58.080 M50.397 57.974 C 48.785 58.464,46.800 59.588,46.800 60.010 C 46.800 60.247,49.274 60.398,53.100 60.395 C 61.638 60.387,62.784 60.033,59.404 58.444 C 57.532 57.564,52.592 57.306,50.397 57.974 M77.011 58.463 L 75.914 59.326 76.825 59.813 C 79.067 61.013,86.800 60.402,86.800 59.025 C 86.800 57.434,78.896 56.980,77.011 58.463 M97.228 58.676 C 97.318 59.715,97.944 60.596,97.972 59.724 C 97.987 59.242,97.820 58.736,97.600 58.600 C 97.380 58.464,97.213 58.498,97.228 58.676 M34.400 61.824 C 34.400 63.225,34.424 63.246,35.900 63.124 C 37.271 63.011,37.400 62.897,37.400 61.805 C 37.400 60.497,36.180 59.873,35.554 60.861 C 35.301 61.260,35.211 61.270,35.206 60.900 C 35.203 60.625,35.020 60.400,34.800 60.400 C 34.580 60.400,34.400 61.041,34.400 61.824 M48.800 63.364 C 48.800 66.264,57.174 67.745,60.479 65.430 C 61.340 64.827,61.277 64.800,58.989 64.798 C 56.474 64.795,54.238 64.331,52.140 63.374 C 50.510 62.632,48.800 62.626,48.800 63.364 M98.063 64.753 C 97.672 65.000,97.813 65.147,98.579 65.294 C 99.219 65.416,99.576 65.329,99.491 65.073 C 99.295 64.484,98.699 64.351,98.063 64.753 M33.067 67.467 C 32.920 67.613,32.800 68.581,32.800 69.617 L 32.800 71.501 35.100 71.701 C 38.397 71.988,39.387 70.273,37.293 67.900 C 36.679 67.204,33.641 66.892,33.067 67.467 M96.500 67.865 C 94.449 68.692,96.718 69.986,99.100 69.348 C 99.985 69.111,100.417 67.600,99.600 67.600 C 99.380 67.600,99.195 67.915,99.188 68.300 C 99.176 68.967,99.156 68.967,98.768 68.300 C 98.371 67.619,97.516 67.455,96.500 67.865 M33.891 69.600 C 33.891 70.480,33.735 71.200,33.545 71.200 C 33.355 71.200,33.200 70.480,33.200 69.600 C 33.200 68.720,33.355 68.000,33.545 68.000 C 33.735 68.000,33.891 68.720,33.891 69.600 M122.676 68.507 C 121.821 68.860,121.604 69.166,121.770 69.786 C 121.891 70.234,121.992 70.825,121.995 71.100 C 121.998 71.455,122.870 71.600,125.000 71.600 L 128.000 71.600 127.994 70.500 C 127.982 68.406,125.329 67.412,122.676 68.507 M10.306 71.100 C 10.210 72.145,10.282 73.171,10.466 73.380 C 10.650 73.589,10.800 72.736,10.800 71.480 C 10.800 68.707,10.544 68.510,10.306 71.100 M7.200 71.151 C 7.200 72.816,7.997 73.840,8.995 73.457 C 10.304 72.955,9.787 69.600,8.400 69.600 C 7.273 69.600,7.200 69.694,7.200 71.151 M98.800 72.000 L 97.800 72.320 98.900 72.360 C 99.505 72.382,100.000 72.220,100.000 72.000 C 100.000 71.780,99.955 71.618,99.900 71.640 C 99.845 71.662,99.350 71.824,98.800 72.000 M97.867 75.867 C 97.406 76.327,97.575 76.800,98.200 76.800 C 98.530 76.800,98.800 76.626,98.800 76.413 C 98.800 76.199,99.070 76.129,99.400 76.255 C 99.730 76.382,100.000 76.286,100.000 76.043 C 100.000 75.566,98.307 75.426,97.867 75.867 M121.600 78.353 C 121.600 78.793,121.420 79.264,121.200 79.400 C 120.980 79.536,120.800 80.164,120.800 80.795 C 120.800 81.426,120.530 82.213,120.200 82.543 C 119.870 82.873,119.600 83.516,119.600 83.971 C 119.600 84.427,119.420 84.800,119.200 84.800 C 118.980 84.800,118.800 85.149,118.800 85.576 C 118.800 86.003,118.620 86.464,118.400 86.600 C 117.556 87.122,117.994 87.890,119.022 87.694 C 119.602 87.583,120.636 87.816,121.407 88.232 L 122.770 88.966 124.440 87.183 C 126.834 84.627,127.558 82.127,126.225 81.019 C 125.668 80.556,125.187 79.678,125.120 79.000 C 124.966 77.462,121.600 76.843,121.600 78.353 M33.522 80.186 C 33.625 81.062,33.944 81.655,34.389 81.797 C 35.855 82.262,36.443 83.433,36.479 85.956 C 36.510 88.189,36.895 89.116,37.293 87.920 C 37.393 87.620,37.551 87.695,37.714 88.120 C 37.858 88.494,37.801 88.800,37.587 88.800 C 37.374 88.800,37.200 89.092,37.200 89.449 C 37.200 90.689,38.288 89.260,38.537 87.692 C 38.880 85.540,37.490 80.426,36.318 79.524 C 34.653 78.243,33.332 78.555,33.522 80.186 M35.030 81.503 C 34.624 81.910,33.888 80.905,34.210 80.383 C 34.431 80.027,34.612 80.079,34.892 80.579 C 35.102 80.953,35.164 81.370,35.030 81.503 M122.000 81.200 C 122.000 81.640,121.820 82.000,121.600 82.000 C 121.380 82.000,121.200 81.640,121.200 81.200 C 121.200 80.760,121.380 80.400,121.600 80.400 C 121.820 80.400,122.000 80.760,122.000 81.200 M11.206 81.400 C 11.151 81.620,11.120 81.916,11.139 82.059 C 11.157 82.201,10.459 82.291,9.586 82.259 C 7.733 82.190,7.740 82.154,8.872 85.740 C 9.572 87.957,9.804 88.340,10.049 87.678 C 10.524 86.396,11.861 85.830,12.366 86.697 C 12.719 87.304,12.777 87.254,12.788 86.333 C 12.795 85.747,12.587 85.196,12.327 85.109 C 12.067 85.022,11.731 84.062,11.580 82.976 C 11.430 81.889,11.262 81.180,11.206 81.400 M97.700 82.334 C 96.664 83.477,96.469 85.600,97.400 85.600 C 97.768 85.600,98.000 85.226,98.000 84.633 C 98.000 84.102,98.196 83.601,98.435 83.522 C 98.674 83.442,98.809 82.919,98.735 82.359 L 98.600 81.342 97.700 82.334 M77.200 89.197 C 82.313 91.085,83.794 92.122,83.923 93.902 C 84.038 95.485,83.977 95.600,83.033 95.600 C 82.325 95.600,81.844 95.942,81.433 96.736 C 79.074 101.298,76.359 102.679,69.596 102.756 C 66.624 102.790,63.697 102.908,63.091 103.018 C 60.005 103.577,56.400 100.850,56.400 97.956 C 56.400 95.606,56.421 95.603,60.400 97.400 C 66.189 100.014,74.825 99.117,78.700 95.500 C 81.279 93.093,78.375 92.646,71.775 94.434 C 68.813 95.237,65.519 95.096,61.075 93.977 C 59.028 93.462,57.953 93.830,56.558 95.526 C 55.431 96.896,53.074 96.401,52.880 94.753 C 52.617 92.522,59.197 90.529,64.606 91.201 C 68.401 91.672,69.336 91.441,71.033 89.613 C 72.321 88.226,74.223 88.097,77.200 89.197 M117.085 92.456 C 116.691 92.677,115.809 92.734,115.124 92.583 L 113.878 92.310 114.125 94.399 C 114.277 95.676,114.743 96.978,115.324 97.744 C 118.196 101.536,117.611 102.400,112.171 102.400 C 108.615 102.400,104.800 103.369,104.800 104.272 C 104.800 104.781,112.014 111.600,112.553 111.600 C 113.324 111.600,114.727 109.933,115.259 108.383 C 115.520 107.622,116.124 106.370,116.600 105.600 C 117.076 104.830,117.677 103.587,117.934 102.837 C 118.192 102.087,118.743 101.235,119.159 100.944 C 120.094 100.289,122.400 96.272,122.400 95.298 C 122.400 94.249,118.044 91.920,117.085 92.456 M14.400 94.714 C 12.924 95.190,12.879 95.557,13.888 98.855 C 15.277 103.392,17.936 107.874,18.601 106.798 C 19.031 106.103,18.887 101.829,18.429 101.676 C 18.193 101.598,18.000 101.268,18.000 100.943 C 18.000 100.599,17.808 100.472,17.538 100.638 C 17.266 100.806,17.184 100.749,17.339 100.498 C 17.814 99.729,17.182 98.717,16.553 99.239 C 16.121 99.598,16.000 99.556,16.000 99.049 C 16.000 98.692,16.186 98.400,16.414 98.400 C 16.686 98.400,16.671 98.107,16.371 97.546 C 16.001 96.855,15.841 96.798,15.533 97.246 C 15.269 97.629,15.221 97.429,15.375 96.600 C 15.637 95.196,15.246 94.440,14.400 94.714 M94.800 102.967 C 94.800 104.599,94.691 106.219,94.557 106.567 C 94.386 107.014,94.549 107.200,95.112 107.200 C 96.086 107.200,96.393 105.666,96.094 102.300 C 95.771 98.679,94.800 99.180,94.800 102.967 M99.200 102.400 C 99.200 103.280,99.380 104.000,99.600 104.000 C 99.820 104.000,100.000 103.280,100.000 102.400 C 100.000 101.520,99.820 100.800,99.600 100.800 C 99.380 100.800,99.200 101.520,99.200 102.400 M58.400 105.200 C 58.400 105.420,58.029 105.600,57.576 105.600 C 57.123 105.600,56.864 105.420,57.000 105.200 C 57.136 104.980,57.507 104.800,57.824 104.800 C 58.141 104.800,58.400 104.980,58.400 105.200 M62.967 105.843 C 63.965 106.226,63.709 106.622,62.400 106.721 C 61.554 106.786,61.200 106.634,61.200 106.206 C 61.200 105.573,61.892 105.430,62.967 105.843 M21.467 109.867 C 20.533 110.800,24.785 116.800,26.380 116.800 C 27.238 116.800,28.343 115.269,28.115 114.396 C 27.942 113.737,27.806 113.659,27.537 114.066 C 27.254 114.496,27.107 114.467,26.784 113.920 C 26.563 113.546,26.117 112.974,25.792 112.649 C 25.468 112.325,25.262 111.821,25.336 111.530 C 25.409 111.238,25.393 111.135,25.301 111.300 C 24.970 111.893,24.400 111.584,24.400 110.813 C 24.400 110.242,24.216 110.096,23.734 110.281 C 23.287 110.452,23.164 110.383,23.358 110.068 C 23.669 109.564,21.952 109.381,21.467 109.867 M106.796 111.807 C 106.504 112.353,106.115 112.800,105.932 112.800 C 105.242 112.800,105.648 113.621,107.013 114.987 C 108.656 116.629,109.317 116.739,110.177 115.511 C 111.047 114.270,110.949 113.997,109.026 112.307 L 107.328 110.814 106.796 111.807 M103.587 115.286 C 103.560 116.379,102.406 117.451,101.958 116.798 C 101.641 116.336,101.605 116.403,101.799 117.095 C 102.029 117.912,101.945 117.969,100.845 117.749 C 99.601 117.500,98.705 118.875,99.388 119.981 C 100.326 121.499,98.642 122.458,97.275 121.184 C 96.794 120.736,96.400 120.556,96.400 120.784 C 96.400 121.013,96.068 121.200,95.662 121.200 C 94.902 121.200,93.600 122.366,93.600 123.047 C 93.600 123.259,93.105 123.424,92.500 123.416 C 91.247 123.398,90.790 124.886,91.589 126.380 C 92.246 127.607,95.933 126.359,98.600 124.006 C 99.040 123.618,100.237 122.842,101.260 122.281 C 102.283 121.719,103.453 120.986,103.860 120.652 C 104.267 120.317,105.050 119.687,105.600 119.252 L 106.600 118.461 105.822 117.003 C 104.986 115.436,103.610 114.378,103.587 115.286 M31.200 116.898 C 31.200 117.180,30.795 117.588,30.300 117.805 C 28.895 118.421,29.219 119.181,31.600 120.851 C 33.193 121.969,34.048 122.327,34.700 122.151 C 35.911 121.822,35.912 120.195,34.702 119.548 C 34.208 119.283,33.218 118.464,32.502 117.726 C 31.786 116.989,31.200 116.616,31.200 116.898 M38.930 123.148 C 38.956 123.670,39.402 124.390,39.922 124.748 C 40.441 125.107,41.460 125.895,42.186 126.500 C 43.831 127.871,44.710 127.896,45.040 126.581 C 45.355 125.329,45.234 125.199,43.651 125.088 C 42.768 125.026,42.456 124.836,42.604 124.449 C 42.766 124.023,42.529 123.954,41.565 124.147 C 40.560 124.348,40.360 124.280,40.545 123.798 C 40.699 123.398,40.526 123.200,40.021 123.200 C 39.606 123.200,39.180 122.975,39.074 122.700 C 38.968 122.425,38.903 122.627,38.930 123.148 M82.200 127.600 C 82.064 127.820,81.254 128.000,80.400 128.000 C 79.546 128.000,78.736 128.180,78.600 128.400 C 78.464 128.620,77.688 128.826,76.876 128.857 L 75.400 128.914 77.000 129.200 C 77.880 129.358,78.375 129.512,78.100 129.543 C 77.462 129.616,77.476 130.804,78.124 131.655 C 78.480 132.123,79.218 132.301,80.707 132.279 C 83.000 132.244,82.864 132.441,83.313 128.500 C 83.458 127.229,82.772 126.674,82.200 127.600 M52.000 128.400 C 52.550 128.576,52.775 128.738,52.500 128.760 C 51.029 128.877,51.953 132.358,53.675 133.191 C 56.014 134.321,56.400 134.242,56.400 132.633 C 56.400 130.348,56.699 130.005,58.743 129.946 C 59.764 129.916,60.195 129.813,59.700 129.718 C 59.205 129.622,58.800 129.377,58.800 129.172 C 58.800 128.967,57.731 128.800,56.424 128.800 C 55.117 128.800,53.936 128.620,53.800 128.400 C 53.664 128.180,52.978 128.018,52.276 128.040 C 51.057 128.078,51.045 128.094,52.000 128.400 M56.000 129.649 C 56.000 129.402,56.174 129.200,56.387 129.200 C 56.601 129.200,56.668 129.479,56.537 129.820 C 56.248 130.574,55.142 130.428,54.868 129.600 C 54.698 129.086,54.765 129.078,55.335 129.549 C 55.767 129.906,56.000 129.941,56.000 129.649 M66.900 131.089 C 65.452 131.269,65.417 131.354,66.039 133.140 C 66.675 134.964,70.000 134.831,70.000 132.982 C 70.000 132.087,69.024 130.734,68.471 130.864 C 68.322 130.899,67.615 131.001,66.900 131.089 " stroke="none" fill="#ffffff" fill-rule="evenodd"></path><path id="path2" d="M59.492 17.202 C 58.883 17.385,57.510 17.622,56.441 17.727 C 55.371 17.833,54.127 18.118,53.675 18.360 C 53.223 18.602,52.401 18.800,51.850 18.800 C 51.298 18.800,50.736 18.980,50.600 19.200 C 50.464 19.420,49.992 19.600,49.552 19.600 C 48.692 19.600,45.893 20.797,41.400 23.086 C 34.874 26.410,28.560 31.876,23.625 38.473 C 20.776 42.281,16.759 49.816,15.774 53.200 C 15.422 54.410,14.968 55.713,14.767 56.095 C 14.565 56.477,14.400 57.163,14.400 57.621 C 14.400 58.078,14.233 58.765,14.029 59.146 C 13.825 59.528,13.535 60.911,13.384 62.220 C 13.233 63.529,12.950 64.903,12.755 65.274 C 12.295 66.147,12.312 77.316,12.776 79.400 C 12.972 80.280,13.247 81.884,13.386 82.963 C 13.526 84.043,13.811 85.246,14.020 85.637 C 14.229 86.028,14.400 86.812,14.400 87.379 C 14.400 87.947,14.558 88.723,14.751 89.105 C 14.944 89.487,15.330 90.520,15.609 91.400 C 16.388 93.859,19.374 100.085,20.969 102.579 C 21.756 103.809,22.400 104.901,22.400 105.005 C 22.400 105.191,23.719 106.808,24.700 107.825 C 24.975 108.110,25.202 108.491,25.204 108.671 C 25.212 109.270,34.081 117.600,34.711 117.600 C 34.874 117.600,35.456 118.010,36.004 118.512 C 38.241 120.560,45.984 124.480,50.000 125.597 C 50.990 125.873,52.610 126.327,53.600 126.606 C 62.290 129.055,75.586 128.301,85.000 124.823 C 85.965 124.467,92.279 121.348,93.393 120.677 C 98.718 117.473,106.390 110.764,106.398 109.306 C 106.399 108.922,101.286 108.784,83.300 108.684 C 60.670 108.557,59.043 108.480,56.600 107.410 C 55.940 107.121,54.860 106.664,54.200 106.395 C 44.892 102.604,32.800 89.540,32.800 83.274 C 32.800 82.819,32.639 82.348,32.442 82.226 C 31.516 81.654,30.852 68.991,31.593 66.030 C 32.902 60.796,33.178 60.030,35.268 55.844 C 36.800 52.776,37.940 51.266,41.590 47.468 C 45.865 43.019,47.836 41.706,56.486 37.541 C 58.990 36.335,61.060 36.226,83.500 36.108 C 101.330 36.014,106.400 35.878,106.399 35.494 C 106.398 34.921,102.535 30.979,100.203 29.171 C 99.325 28.490,98.515 27.812,98.403 27.664 C 97.966 27.086,95.302 25.259,93.400 24.235 C 92.300 23.642,91.130 23.002,90.800 22.813 C 83.028 18.356,65.878 15.282,59.492 17.202 M93.040 46.736 C 92.721 47.251,93.147 48.126,95.209 51.200 C 96.021 52.410,97.181 54.390,97.787 55.600 C 98.393 56.810,99.049 58.113,99.245 58.495 C 99.440 58.877,99.600 59.554,99.600 60.000 C 99.600 60.446,99.764 61.123,99.965 61.505 C 101.882 65.158,101.882 79.642,99.965 83.295 C 99.764 83.677,99.600 84.354,99.600 84.800 C 99.600 85.246,99.438 85.923,99.241 86.305 C 99.043 86.687,98.389 87.990,97.787 89.200 C 96.273 92.242,96.027 92.660,94.078 95.507 C 92.125 98.358,92.182 98.800,94.500 98.800 C 104.464 98.800,113.823 92.756,118.036 83.600 C 119.996 79.341,121.094 73.259,120.426 70.361 C 120.202 69.393,120.015 67.936,120.010 67.124 C 120.004 66.312,119.820 65.536,119.600 65.400 C 119.380 65.264,119.196 64.848,119.191 64.476 C 119.149 61.291,113.210 53.525,108.394 50.357 C 104.174 47.581,94.000 45.182,93.040 46.736 " stroke="none" fill="#bc8606" fill-rule="evenodd"></path><path id="path3" d="M59.968 16.642 C 54.808 17.297,48.559 18.844,46.505 19.975 C 46.117 20.188,44.149 21.162,42.131 22.139 C 28.526 28.725,17.807 42.349,13.602 58.400 C 7.988 79.827,16.286 104.169,33.761 117.533 C 47.438 127.992,64.673 131.382,80.600 126.745 C 84.341 125.656,88.258 124.242,89.580 123.503 C 93.146 121.509,94.756 120.544,96.826 119.159 C 99.897 117.106,107.354 109.862,107.120 109.161 C 106.964 108.692,103.144 108.564,83.767 108.382 C 69.327 108.245,60.073 108.004,59.200 107.741 C 42.658 102.757,31.689 88.518,31.612 71.931 C 31.590 67.028,33.864 58.599,36.031 55.556 C 36.454 54.962,36.800 54.313,36.800 54.113 C 36.800 51.005,50.350 40.127,56.728 38.114 C 57.757 37.789,59.230 37.328,60.000 37.090 C 60.896 36.812,69.606 36.574,84.200 36.428 C 110.553 36.164,108.763 36.564,104.060 32.000 C 95.948 24.129,87.970 19.777,77.200 17.347 C 72.441 16.273,65.201 15.977,59.968 16.642 M74.591 17.431 C 81.004 18.692,87.205 20.751,90.800 22.813 C 91.130 23.002,92.300 23.642,93.400 24.235 C 95.302 25.259,97.966 27.086,98.403 27.664 C 98.515 27.812,99.325 28.490,100.203 29.171 C 102.535 30.979,106.398 34.921,106.399 35.494 C 106.400 35.878,101.330 36.014,83.500 36.108 C 61.060 36.226,58.990 36.335,56.486 37.541 C 47.836 41.706,45.865 43.019,41.590 47.468 C 37.940 51.266,36.800 52.776,35.268 55.844 C 33.178 60.030,32.902 60.796,31.593 66.030 C 30.852 68.991,31.516 81.654,32.442 82.226 C 32.639 82.348,32.800 82.819,32.800 83.274 C 32.800 89.540,44.892 102.604,54.200 106.395 C 54.860 106.664,55.940 107.121,56.600 107.410 C 59.043 108.480,60.670 108.557,83.300 108.684 C 101.286 108.784,106.399 108.922,106.398 109.306 C 106.390 110.764,98.718 117.473,93.393 120.677 C 81.930 127.576,65.647 130.002,53.600 126.606 C 52.610 126.327,50.990 125.873,50.000 125.597 C 45.984 124.480,38.241 120.560,36.004 118.512 C 35.456 118.010,34.874 117.600,34.711 117.600 C 34.081 117.600,25.212 109.270,25.204 108.671 C 25.202 108.491,24.975 108.110,24.700 107.825 C 23.719 106.808,22.400 105.191,22.400 105.005 C 22.400 104.901,21.756 103.809,20.969 102.579 C 19.374 100.085,16.388 93.859,15.609 91.400 C 15.330 90.520,14.944 89.487,14.751 89.105 C 14.558 88.723,14.400 87.947,14.400 87.379 C 14.400 86.812,14.229 86.028,14.020 85.637 C 13.811 85.246,13.526 84.043,13.386 82.963 C 13.247 81.884,12.972 80.280,12.776 79.400 C 12.312 77.316,12.295 66.147,12.755 65.274 C 12.950 64.903,13.233 63.529,13.384 62.220 C 13.535 60.911,13.825 59.528,14.029 59.146 C 14.233 58.765,14.400 58.078,14.400 57.621 C 14.400 57.163,14.565 56.477,14.767 56.095 C 14.968 55.713,15.422 54.410,15.774 53.200 C 19.043 41.975,30.308 28.737,41.400 23.086 C 45.893 20.797,48.692 19.600,49.552 19.600 C 49.992 19.600,50.464 19.420,50.600 19.200 C 50.736 18.980,51.298 18.800,51.850 18.800 C 52.401 18.800,53.223 18.602,53.675 18.360 C 54.127 18.118,55.371 17.833,56.441 17.727 C 57.510 17.622,58.883 17.385,59.492 17.202 C 61.467 16.608,71.153 16.755,74.591 17.431 M92.900 45.857 C 91.681 46.126,91.770 47.055,93.221 49.200 C 95.363 52.368,97.674 56.447,98.634 58.756 C 99.232 60.197,99.572 60.676,99.583 60.095 C 99.592 59.597,99.440 58.877,99.245 58.495 C 99.049 58.113,98.390 56.810,97.779 55.600 C 97.168 54.390,95.793 52.063,94.724 50.430 C 92.261 46.666,92.299 46.586,96.538 46.661 C 103.874 46.789,111.243 50.931,115.641 57.398 C 117.323 59.871,119.179 63.572,119.191 64.476 C 119.196 64.848,119.380 65.264,119.600 65.400 C 119.820 65.536,120.004 66.312,120.010 67.124 C 120.015 67.936,120.202 69.393,120.426 70.361 C 121.094 73.259,119.996 79.341,118.036 83.600 C 113.823 92.756,104.464 98.800,94.500 98.800 C 92.182 98.800,92.125 98.358,94.078 95.507 C 96.027 92.660,96.273 92.242,97.787 89.200 C 98.389 87.990,99.043 86.687,99.241 86.305 C 99.438 85.923,99.600 85.246,99.600 84.800 C 99.600 84.354,99.764 83.677,99.965 83.295 C 101.318 80.717,101.971 67.264,100.862 64.800 C 100.511 64.018,100.477 64.542,100.706 67.200 C 101.684 78.516,99.963 85.521,94.002 94.494 C 90.937 99.107,91.025 99.335,95.757 99.066 C 99.670 98.844,101.728 98.544,103.000 98.009 C 122.514 89.808,127.289 68.283,112.885 53.446 C 107.660 48.065,98.561 44.609,92.900 45.857 M99.606 61.876 C 99.609 62.274,99.787 62.870,100.000 63.200 C 100.303 63.669,100.389 63.566,100.394 62.724 C 100.397 62.132,100.220 61.536,100.000 61.400 C 99.780 61.264,99.603 61.478,99.606 61.876 " stroke="none" fill="#cdae65" fill-rule="evenodd"></path><path id="path4" d="M61.400 15.956 C 60.920 16.155,63.120 16.313,66.904 16.350 C 70.997 16.391,74.009 16.621,75.488 17.006 C 76.742 17.333,78.135 17.587,78.584 17.571 C 79.033 17.554,78.050 17.198,76.400 16.778 C 73.126 15.945,62.789 15.378,61.400 15.956 M56.200 16.814 C 55.678 17.048,56.163 17.088,57.600 16.932 C 58.810 16.800,59.875 16.626,59.967 16.546 C 60.321 16.236,56.957 16.475,56.200 16.814 M51.800 17.684 C 48.747 18.414,47.092 18.965,46.647 19.398 C 46.401 19.638,45.609 20.075,44.887 20.371 C 44.165 20.666,43.656 20.990,43.757 21.090 C 43.857 21.190,44.808 20.844,45.870 20.319 C 47.880 19.326,49.495 18.776,53.200 17.820 C 55.625 17.195,54.360 17.071,51.800 17.684 M79.650 17.767 C 79.788 17.913,81.215 18.406,82.823 18.860 C 89.633 20.788,97.556 25.690,104.060 32.000 C 108.762 36.563,110.552 36.164,84.200 36.434 C 69.625 36.583,60.895 36.824,60.000 37.101 C 58.757 37.486,58.869 37.509,61.000 37.307 C 62.320 37.182,73.047 37.062,84.838 37.040 C 107.506 36.998,107.937 36.962,107.276 35.208 C 106.965 34.381,102.505 29.600,102.046 29.600 C 101.882 29.600,100.860 28.702,99.774 27.605 C 98.688 26.507,97.657 25.607,97.483 25.605 C 97.309 25.602,96.826 25.282,96.409 24.894 C 95.208 23.776,85.206 18.959,83.000 18.437 C 81.900 18.177,80.640 17.860,80.200 17.732 C 79.760 17.605,79.513 17.620,79.650 17.767 M39.732 22.765 C 38.155 23.583,36.445 24.645,35.932 25.123 C 35.420 25.601,33.920 26.860,32.600 27.920 C 28.731 31.027,22.513 37.605,23.451 37.597 C 23.643 37.596,24.230 36.963,24.756 36.191 C 27.338 32.399,36.201 24.997,40.862 22.739 C 42.148 22.116,43.200 21.515,43.200 21.403 C 43.200 21.036,42.634 21.258,39.732 22.765 M57.200 38.000 L 56.200 38.320 57.300 38.360 C 57.905 38.382,58.400 38.220,58.400 38.000 C 58.400 37.780,58.355 37.618,58.300 37.640 C 58.245 37.662,57.750 37.824,57.200 38.000 M21.880 39.117 C 20.852 40.189,17.458 46.391,17.743 46.676 C 17.819 46.752,18.474 45.686,19.198 44.307 C 19.922 42.928,21.119 40.945,21.857 39.900 C 23.393 37.724,23.399 37.531,21.880 39.117 M51.600 40.509 C 46.854 43.143,43.499 45.844,40.222 49.670 C 37.818 52.475,35.490 55.962,36.393 55.404 C 36.620 55.264,37.058 54.661,37.366 54.065 C 37.675 53.469,38.673 52.175,39.585 51.191 C 40.496 50.206,41.519 48.950,41.857 48.400 C 42.196 47.850,43.287 46.770,44.283 46.000 C 45.279 45.230,46.621 44.134,47.265 43.565 C 47.909 42.996,49.553 42.006,50.918 41.365 C 52.283 40.724,53.490 40.091,53.600 39.958 C 53.710 39.825,54.340 39.427,55.000 39.074 C 55.660 38.721,56.020 38.425,55.800 38.416 C 55.580 38.407,53.690 39.349,51.600 40.509 M94.905 45.487 C 95.514 45.579,96.414 45.577,96.905 45.482 C 97.397 45.387,96.900 45.311,95.800 45.314 C 94.700 45.317,94.297 45.395,94.905 45.487 M91.680 46.080 C 91.131 46.629,91.037 47.600,91.532 47.600 C 91.715 47.600,92.119 48.095,92.431 48.700 C 92.742 49.305,93.762 51.002,94.698 52.470 C 95.634 53.939,96.400 55.334,96.400 55.570 C 96.400 55.807,96.558 56.000,96.751 56.000 C 96.945 56.000,97.329 56.546,97.605 57.213 C 97.882 57.880,98.194 58.339,98.300 58.234 C 98.544 57.989,95.989 53.385,93.733 50.004 C 91.779 47.077,91.588 46.135,92.900 45.882 C 93.714 45.726,93.721 45.704,92.980 45.654 C 92.529 45.625,91.944 45.816,91.680 46.080 M98.600 45.873 C 105.551 47.440,110.595 50.396,114.517 55.200 C 117.447 58.790,117.638 58.956,115.936 56.444 C 112.096 50.773,103.575 45.401,98.800 45.642 C 97.987 45.683,97.950 45.727,98.600 45.873 M16.080 49.280 C 15.816 49.544,15.600 50.073,15.600 50.456 C 15.600 50.839,15.420 51.264,15.200 51.400 C 14.980 51.536,14.806 52.132,14.814 52.724 C 14.826 53.553,15.001 53.323,15.576 51.723 C 15.988 50.581,16.442 49.456,16.586 49.223 C 16.935 48.657,16.673 48.687,16.080 49.280 M35.005 57.339 C 34.672 58.142,34.128 59.458,33.795 60.261 C 33.462 61.065,33.257 61.791,33.340 61.874 C 33.423 61.957,33.882 61.074,34.359 59.912 C 34.837 58.750,35.414 57.467,35.641 57.061 C 35.869 56.655,35.955 56.222,35.833 56.100 C 35.711 55.977,35.338 56.535,35.005 57.339 M13.429 57.429 C 13.281 58.015,13.251 58.584,13.361 58.694 C 13.471 58.804,13.681 58.415,13.829 57.829 C 13.976 57.242,14.006 56.673,13.896 56.563 C 13.786 56.453,13.576 56.842,13.429 57.429 M98.604 59.400 C 98.749 59.840,98.967 60.789,99.088 61.510 C 99.209 62.230,99.444 62.904,99.611 63.007 C 100.012 63.254,99.283 60.047,98.753 59.235 C 98.414 58.715,98.387 58.745,98.604 59.400 M12.225 63.269 C 11.415 67.703,11.243 76.145,11.888 79.800 C 12.127 81.154,12.186 79.409,12.068 74.400 C 11.929 68.462,12.031 66.312,12.587 63.518 C 12.967 61.603,13.211 59.834,13.129 59.587 C 13.047 59.340,12.640 60.997,12.225 63.269 M117.600 59.332 C 117.600 59.405,118.049 60.350,118.598 61.432 C 119.147 62.514,119.597 63.168,119.598 62.884 C 119.600 62.295,118.083 59.200,117.792 59.200 C 117.686 59.200,117.600 59.259,117.600 59.332 M100.040 65.233 C 100.062 66.205,100.231 67.450,100.416 68.000 C 100.626 68.627,100.666 68.030,100.523 66.400 C 100.255 63.356,99.983 62.698,100.040 65.233 M119.820 64.300 C 119.989 64.685,120.351 66.170,120.625 67.600 C 121.122 70.195,121.123 70.196,121.162 68.349 C 121.197 66.633,120.297 63.600,119.752 63.600 C 119.621 63.600,119.652 63.915,119.820 64.300 M31.850 68.050 C 31.535 69.627,31.592 74.322,31.962 77.200 C 32.149 78.656,32.237 77.270,32.222 73.101 C 32.198 66.172,32.205 66.274,31.850 68.050 M100.501 72.607 C 100.476 74.583,100.364 77.280,100.253 78.600 L 100.049 81.000 100.406 79.000 C 100.994 75.701,101.218 71.477,100.872 70.207 C 100.635 69.338,100.534 69.988,100.501 72.607 M121.141 74.000 C 121.003 75.430,120.771 77.140,120.626 77.800 C 120.373 78.951,120.388 78.943,120.998 77.614 C 121.416 76.703,121.592 75.400,121.513 73.814 L 121.393 71.400 121.141 74.000 M120.046 79.667 C 120.021 80.034,119.896 80.664,119.770 81.067 C 119.552 81.762,119.563 81.763,119.997 81.087 C 120.248 80.696,120.373 80.066,120.273 79.687 C 120.111 79.068,120.088 79.066,120.046 79.667 M32.400 80.207 C 32.400 80.838,34.074 85.383,35.208 87.832 C 37.514 92.809,43.558 99.678,48.191 102.588 C 51.474 104.650,57.958 107.611,59.133 107.586 C 59.500 107.578,58.871 107.237,57.735 106.828 C 56.599 106.419,54.529 105.504,53.135 104.795 C 51.741 104.085,50.233 103.336,49.784 103.130 C 47.785 102.211,44.159 99.058,41.496 95.922 C 36.862 90.464,36.458 89.902,35.731 87.900 C 35.352 86.855,34.898 86.000,34.721 86.000 C 34.544 86.000,34.400 85.685,34.400 85.300 C 34.400 84.915,34.024 83.610,33.565 82.400 C 32.725 80.189,32.400 79.576,32.400 80.207 M99.429 82.229 C 99.281 82.815,99.238 83.372,99.332 83.466 C 99.427 83.560,99.624 83.158,99.771 82.571 C 99.919 81.985,99.962 81.428,99.868 81.334 C 99.773 81.240,99.576 81.642,99.429 82.229 M98.034 86.523 C 97.515 87.885,96.858 89.270,96.573 89.601 C 96.288 89.931,95.812 90.651,95.514 91.201 C 95.217 91.750,94.103 93.541,93.039 95.179 C 90.400 99.242,90.543 99.414,96.494 99.351 C 99.233 99.322,101.393 99.112,101.844 98.832 C 102.472 98.441,102.330 98.403,101.000 98.603 C 100.120 98.736,97.761 98.941,95.757 99.059 C 91.277 99.323,90.987 98.983,93.071 95.914 C 96.527 90.824,99.679 84.746,99.142 84.208 C 99.052 84.118,98.554 85.160,98.034 86.523 M115.985 88.118 C 112.955 92.667,108.586 96.027,103.443 97.763 C 103.026 97.904,102.768 98.101,102.869 98.202 C 103.704 99.038,110.208 95.293,113.131 92.293 C 115.031 90.344,118.611 85.278,118.306 84.973 C 118.231 84.898,117.187 86.313,115.985 88.118 M13.256 86.400 C 13.256 86.730,13.411 87.360,13.600 87.800 C 13.817 88.304,13.944 88.378,13.944 88.000 C 13.944 87.670,13.789 87.040,13.600 86.600 C 13.383 86.096,13.256 86.022,13.256 86.400 M14.022 89.372 C 13.993 90.398,14.793 92.631,15.895 94.600 C 16.931 96.451,17.127 96.186,16.131 94.280 C 15.764 93.576,15.143 92.010,14.753 90.800 C 14.362 89.590,14.033 88.947,14.022 89.372 M17.607 98.131 C 17.591 98.854,22.136 106.598,23.202 107.664 C 24.984 109.446,25.012 108.995,23.249 106.900 C 22.370 105.855,20.742 103.380,19.632 101.400 C 18.523 99.420,17.611 97.949,17.607 98.131 M60.600 108.000 C 61.040 108.189,62.030 108.335,62.800 108.325 L 64.200 108.305 63.000 108.000 C 61.203 107.543,59.536 107.543,60.600 108.000 M84.120 108.298 C 86.055 108.372,89.115 108.371,90.920 108.297 C 92.724 108.223,91.140 108.163,87.400 108.164 C 83.660 108.164,82.184 108.225,84.120 108.298 M97.100 108.293 C 98.035 108.377,99.565 108.377,100.500 108.293 C 101.435 108.209,100.670 108.140,98.800 108.140 C 96.930 108.140,96.165 108.209,97.100 108.293 M105.369 108.357 C 106.232 108.491,107.021 108.852,107.122 109.161 C 107.350 109.852,99.847 117.160,96.900 119.118 C 94.583 120.657,94.165 121.149,95.963 120.219 C 97.457 119.446,103.695 114.017,105.900 111.569 C 108.310 108.894,108.079 107.922,105.067 108.057 C 103.889 108.110,103.910 108.131,105.369 108.357 M25.596 110.184 C 27.032 112.151,30.334 115.489,31.845 116.501 C 32.751 117.107,34.281 118.292,35.245 119.133 C 36.907 120.581,39.573 122.161,39.864 121.869 C 39.938 121.795,39.507 121.479,38.905 121.167 C 36.695 120.021,29.614 114.341,27.341 111.891 C 26.053 110.503,25.268 109.735,25.596 110.184 M93.000 121.534 C 89.829 123.465,87.755 124.469,85.289 125.265 C 83.811 125.743,82.816 126.205,83.078 126.293 C 83.341 126.380,83.914 126.260,84.352 126.026 C 84.789 125.792,85.431 125.600,85.778 125.600 C 86.444 125.600,90.059 124.026,90.400 123.588 C 90.510 123.446,91.455 122.834,92.500 122.227 C 93.545 121.621,94.400 121.051,94.400 120.962 C 94.400 120.706,94.274 120.758,93.000 121.534 M40.600 122.322 C 41.481 123.193,49.099 126.800,50.057 126.800 C 50.620 126.800,51.644 126.996,52.332 127.236 C 53.020 127.476,53.795 127.602,54.055 127.515 C 54.314 127.429,53.463 127.124,52.163 126.837 C 49.184 126.180,49.025 126.120,44.200 123.827 C 42.000 122.782,40.380 122.105,40.600 122.322 M80.400 126.752 C 78.334 127.880,72.722 128.600,66.000 128.600 C 62.150 128.600,59.540 128.659,60.200 128.731 C 60.860 128.803,61.568 129.024,61.773 129.223 C 62.397 129.830,71.517 129.172,76.200 128.182 C 80.912 127.187,83.241 126.461,81.800 126.438 C 81.360 126.430,80.730 126.572,80.400 126.752 M55.400 128.000 C 55.840 128.189,56.740 128.335,57.400 128.325 L 58.600 128.305 57.400 128.000 C 56.740 127.832,55.840 127.686,55.400 127.675 L 54.600 127.656 55.400 128.000 " stroke="none" fill="#d9ccad" fill-rule="evenodd"></path><path id="path5" d="M63.600 5.640 C 60.275 5.926,57.962 6.257,56.600 6.641 C 56.380 6.704,55.210 6.931,54.000 7.146 C 51.509 7.589,47.200 9.155,47.200 9.617 C 47.200 9.785,45.964 10.298,44.453 10.757 C 42.942 11.215,41.489 11.852,41.224 12.171 C 40.959 12.490,39.540 13.130,38.071 13.593 C 35.583 14.378,33.991 15.231,29.555 18.158 C 28.590 18.794,25.264 21.854,22.164 24.958 C 1.687 45.457,-2.971 75.915,10.442 101.600 C 22.699 125.072,48.641 139.130,74.484 136.307 C 85.077 135.149,97.611 130.339,105.000 124.594 C 105.440 124.252,106.520 123.425,107.400 122.757 C 115.708 116.445,123.502 106.053,127.783 95.580 C 132.403 84.277,133.887 68.149,131.232 58.086 C 128.535 47.866,128.213 46.965,125.051 40.801 C 123.407 37.595,121.722 34.815,120.325 33.000 C 115.957 27.325,112.971 24.129,108.136 19.952 C 99.866 12.806,85.760 6.982,74.311 5.985 C 71.830 5.769,69.260 5.530,68.600 5.453 C 67.940 5.376,65.690 5.460,63.600 5.640 M68.678 8.252 C 70.114 8.528,70.315 9.232,70.063 13.100 L 69.926 15.200 67.763 15.200 C 65.591 15.200,64.639 14.441,66.700 14.353 L 67.800 14.305 66.600 14.050 C 65.403 13.795,65.400 13.786,65.282 10.647 L 65.165 7.500 66.282 7.753 C 66.897 7.892,67.975 8.116,68.678 8.252 M80.801 9.847 C 82.236 10.421,82.412 10.636,82.359 11.747 C 82.326 12.436,82.589 13.661,82.942 14.469 C 83.514 15.775,83.520 16.063,82.995 17.069 C 82.670 17.691,82.404 18.001,82.402 17.758 C 82.401 17.515,81.815 17.128,81.100 16.899 C 80.385 16.669,80.115 16.463,80.500 16.441 C 81.475 16.384,81.382 15.600,80.400 15.600 C 79.932 15.600,79.600 15.867,79.600 16.243 C 79.600 16.704,79.402 16.800,78.900 16.581 C 78.515 16.414,77.390 16.149,76.400 15.992 C 74.660 15.716,74.866 15.436,76.700 15.584 C 77.195 15.624,77.600 15.445,77.600 15.185 C 77.600 14.881,77.102 14.771,76.200 14.876 C 74.959 15.021,74.800 14.935,74.800 14.120 C 74.800 13.337,75.007 13.200,76.186 13.200 C 77.698 13.200,78.508 12.269,78.381 10.678 C 78.241 8.921,78.373 8.876,80.801 9.847 M58.606 11.238 C 60.653 12.393,61.652 14.000,60.324 14.000 C 60.061 14.000,60.178 14.242,60.583 14.538 C 61.497 15.206,60.728 15.520,57.000 16.000 C 55.680 16.170,54.195 16.440,53.700 16.601 C 53.017 16.823,52.800 16.737,52.800 16.247 C 52.800 15.867,52.470 15.600,52.000 15.600 C 51.560 15.600,51.200 15.780,51.200 16.000 C 51.200 16.220,51.515 16.403,51.900 16.406 C 52.498 16.411,52.513 16.469,52.000 16.800 C 50.485 17.779,50.092 16.027,51.462 14.400 C 52.172 13.555,52.418 12.849,52.327 11.910 C 52.209 10.694,52.300 10.583,53.600 10.353 C 56.051 9.919,56.369 9.976,58.606 11.238 M98.947 17.200 C 99.244 17.200,100.278 17.828,101.244 18.596 C 102.210 19.364,103.194 19.994,103.430 19.996 C 104.822 20.009,105.712 21.933,105.227 23.881 C 103.703 30.007,99.200 29.803,99.200 23.607 C 99.200 20.430,99.103 20.310,96.978 20.851 C 93.158 21.824,92.411 21.896,91.702 21.359 C 91.316 21.065,90.640 20.806,90.200 20.781 C 89.760 20.757,89.625 20.646,89.900 20.535 C 90.845 20.154,90.417 19.509,89.390 19.767 C 88.455 20.001,88.398 19.937,88.626 18.910 C 89.108 16.735,89.697 14.987,90.241 14.120 L 90.792 13.240 94.600 15.220 C 96.694 16.309,98.650 17.200,98.947 17.200 M44.900 16.138 C 45.692 18.550,45.783 19.600,45.200 19.600 C 44.980 19.600,44.800 19.330,44.800 19.000 C 44.800 18.670,44.599 18.400,44.353 18.400 C 44.108 18.400,43.996 18.741,44.105 19.158 C 44.356 20.118,42.864 20.982,41.429 20.708 C 40.863 20.599,40.400 20.666,40.400 20.855 C 40.400 21.045,40.610 21.200,40.867 21.200 C 41.790 21.200,40.882 21.628,39.619 21.787 C 38.910 21.877,37.901 21.755,37.377 21.517 C 35.968 20.875,35.200 21.698,35.200 23.849 C 35.200 25.139,35.042 25.600,34.600 25.600 C 34.270 25.600,34.000 25.409,34.000 25.176 C 34.000 24.943,33.810 24.870,33.579 25.013 C 33.347 25.156,33.225 25.475,33.307 25.721 C 33.489 26.268,31.374 28.400,30.648 28.400 C 28.967 28.400,27.828 24.740,29.092 23.400 C 30.855 21.532,42.413 14.271,44.000 14.036 C 44.110 14.019,44.515 14.965,44.900 16.138 M55.500 14.719 C 53.716 14.936,54.244 15.600,56.200 15.600 C 57.190 15.600,58.000 15.441,58.000 15.247 C 58.000 14.787,56.884 14.551,55.500 14.719 M79.028 17.426 C 84.956 18.894,94.260 22.892,96.409 24.894 C 96.826 25.282,97.309 25.602,97.483 25.605 C 97.657 25.607,98.688 26.507,99.774 27.605 C 100.860 28.702,101.882 29.600,102.046 29.600 C 102.505 29.600,106.965 34.381,107.276 35.208 C 107.937 36.963,107.507 36.998,84.838 37.036 C 61.784 37.075,61.267 37.095,60.475 38.000 C 60.076 38.456,59.900 38.480,59.742 38.100 C 59.494 37.506,58.400 37.425,58.400 38.000 C 58.400 38.220,57.941 38.400,57.380 38.400 C 56.445 38.400,54.076 39.375,53.600 39.956 C 53.490 40.090,52.283 40.724,50.918 41.365 C 49.553 42.006,47.909 42.996,47.265 43.565 C 46.621 44.134,45.280 45.230,44.286 46.000 C 43.292 46.770,42.236 47.788,41.940 48.263 C 41.643 48.738,40.640 49.998,39.711 51.063 C 37.912 53.126,36.495 55.170,35.732 56.800 C 34.078 60.332,33.200 62.611,33.200 63.368 C 33.200 63.848,32.975 64.465,32.700 64.740 C 31.645 65.795,32.151 78.973,33.362 81.976 C 33.933 83.393,34.400 84.878,34.400 85.276 C 34.400 85.674,34.544 86.000,34.721 86.000 C 34.898 86.000,35.352 86.855,35.731 87.900 C 36.458 89.902,36.862 90.464,41.496 95.922 C 44.130 99.023,47.685 102.125,49.784 103.155 C 60.865 108.589,59.849 108.446,85.590 108.193 C 106.709 107.986,107.600 108.022,107.600 109.068 C 107.600 110.701,99.296 118.217,94.151 121.242 C 92.198 122.390,90.510 123.445,90.400 123.587 C 90.119 123.949,86.498 125.600,85.986 125.600 C 85.754 125.600,84.177 126.040,82.482 126.578 C 76.066 128.615,62.517 130.361,61.825 129.240 C 61.702 129.041,60.476 128.754,59.101 128.601 C 57.725 128.448,55.298 127.981,53.707 127.562 C 52.116 127.143,50.406 126.798,49.907 126.795 C 49.408 126.792,48.010 126.283,46.800 125.663 C 45.590 125.044,42.890 123.659,40.800 122.587 C 38.710 121.514,36.210 119.954,35.245 119.120 C 34.281 118.286,32.746 117.107,31.836 116.502 C 30.926 115.896,29.134 114.230,27.855 112.800 C 26.576 111.370,24.737 109.350,23.770 108.311 C 21.967 106.375,19.398 102.012,16.521 96.000 C 14.872 92.555,14.504 91.550,13.451 87.600 C 13.088 86.236,12.848 85.780,12.820 86.400 C 12.781 87.279,12.726 87.315,12.366 86.697 C 11.861 85.830,10.524 86.396,10.049 87.678 C 9.804 88.340,9.572 87.957,8.872 85.740 C 7.740 82.153,7.732 82.190,9.598 82.259 C 10.477 82.292,11.105 82.169,10.992 81.987 C 10.879 81.804,10.970 81.542,11.193 81.404 C 11.441 81.251,11.602 81.747,11.606 82.676 C 11.613 84.264,12.161 85.572,12.626 85.108 C 12.896 84.837,12.242 80.432,11.600 78.200 C 11.083 76.402,11.447 67.021,12.168 63.600 C 12.980 59.741,12.984 59.350,12.200 60.000 C 11.817 60.318,11.600 61.203,11.600 62.449 C 11.600 63.522,11.420 64.400,11.200 64.400 C 10.980 64.400,10.800 63.772,10.800 63.005 C 10.800 61.686,10.712 61.595,9.200 61.354 C 7.308 61.051,7.149 60.318,8.363 57.486 C 8.900 56.234,9.428 55.629,10.142 55.450 C 10.700 55.310,11.476 54.656,11.865 53.998 C 12.929 52.197,13.859 52.406,13.668 54.403 C 13.584 55.284,13.355 56.105,13.158 56.226 C 12.961 56.348,12.814 57.112,12.831 57.924 C 12.861 59.405,14.064 56.309,14.667 53.200 C 14.868 52.161,15.447 50.635,16.032 49.600 C 16.219 49.270,17.276 47.183,18.381 44.962 C 21.183 39.332,26.870 32.509,32.600 27.902 C 33.920 26.841,35.540 25.505,36.200 24.934 C 37.205 24.065,45.145 20.000,45.838 20.000 C 45.959 20.000,46.290 19.767,46.576 19.481 C 47.168 18.889,49.140 18.269,52.600 17.587 C 53.920 17.327,55.522 16.953,56.160 16.757 C 56.798 16.561,58.058 16.387,58.960 16.372 C 59.862 16.356,60.960 16.182,61.400 15.984 C 63.341 15.111,72.810 15.885,79.028 17.426 M109.986 25.974 C 110.586 27.095,110.494 28.678,109.813 28.940 C 109.490 29.064,108.958 29.806,108.631 30.588 C 107.918 32.293,107.027 32.729,106.054 31.849 C 105.659 31.492,105.145 31.200,104.911 31.200 C 103.752 31.200,104.136 29.802,105.905 27.583 C 107.922 25.053,109.219 24.541,109.986 25.974 M27.434 28.196 C 27.783 28.729,27.936 29.381,27.773 29.644 C 27.577 29.961,27.646 30.019,27.977 29.814 C 28.324 29.600,28.427 29.734,28.315 30.253 C 28.225 30.664,27.910 30.945,27.613 30.879 C 27.316 30.812,26.948 30.961,26.794 31.209 C 26.461 31.749,24.000 28.802,24.000 27.862 C 24.000 26.153,26.238 26.371,27.434 28.196 M23.661 31.267 C 25.215 32.949,25.532 33.600,24.800 33.600 C 24.580 33.600,24.400 33.954,24.400 34.387 C 24.400 34.905,24.204 35.100,23.829 34.956 C 23.408 34.794,23.317 34.963,23.483 35.595 C 23.708 36.454,22.177 38.132,21.075 38.234 C 20.814 38.258,20.201 38.306,19.714 38.339 C 18.390 38.430,17.851 39.730,18.450 41.387 C 18.949 42.767,18.398 44.293,17.582 43.789 C 17.402 43.678,17.150 43.757,17.021 43.966 C 16.892 44.174,16.962 44.453,17.176 44.585 C 17.724 44.924,17.233 46.000,16.530 46.000 C 16.158 46.000,16.025 46.253,16.164 46.700 C 16.284 47.085,16.209 47.670,15.997 48.000 C 15.785 48.330,15.609 48.419,15.606 48.198 C 15.603 47.976,15.076 47.563,14.436 47.280 C 12.531 46.437,12.626 45.452,14.918 42.279 C 15.313 41.732,15.732 40.591,15.848 39.742 C 16.189 37.256,17.226 35.180,19.566 32.300 C 22.161 29.106,21.760 29.207,23.661 31.267 M115.316 32.500 C 116.527 34.095,117.980 36.328,118.546 37.463 C 119.112 38.597,119.733 39.587,119.924 39.663 C 120.504 39.891,122.400 43.997,122.400 45.024 C 122.400 46.326,121.295 46.947,116.815 48.163 C 112.191 49.418,112.213 49.441,113.615 45.000 C 115.651 38.555,115.268 37.662,110.200 37.030 C 109.320 36.920,108.476 36.823,108.325 36.815 C 107.810 36.787,108.135 35.003,108.802 34.200 C 109.168 33.760,109.955 32.545,110.550 31.500 C 112.040 28.888,112.676 29.022,115.316 32.500 M70.891 38.900 C 70.810 39.615,70.905 40.920,71.102 41.800 C 71.646 44.229,71.087 45.644,68.999 47.116 C 65.861 49.327,64.000 48.276,64.000 44.293 C 64.000 42.383,63.367 41.893,61.887 42.658 C 59.088 44.106,55.045 43.049,54.712 40.782 C 54.511 39.413,56.284 39.084,57.776 40.213 C 59.595 41.588,63.482 40.690,63.859 38.807 L 64.100 37.600 67.570 37.600 L 71.039 37.600 70.891 38.900 M77.600 38.131 C 77.600 38.493,77.218 38.605,76.395 38.485 C 74.656 38.229,74.500 37.600,76.176 37.600 C 77.093 37.600,77.600 37.789,77.600 38.131 M80.931 38.900 C 80.404 41.643,80.126 42.000,78.510 42.005 C 77.679 42.008,76.595 42.119,76.100 42.252 C 75.594 42.388,75.200 42.313,75.200 42.082 C 75.200 41.855,75.902 41.552,76.759 41.407 C 78.520 41.109,80.533 39.213,80.149 38.212 C 79.999 37.822,80.143 37.600,80.547 37.600 C 81.046 37.600,81.127 37.876,80.931 38.900 M92.720 38.833 C 92.793 39.461,92.636 39.884,92.320 39.910 C 87.071 40.353,84.400 39.806,84.400 38.290 C 84.400 36.930,92.561 37.463,92.720 38.833 M100.400 38.000 C 100.400 38.220,99.770 38.400,99.000 38.400 C 98.230 38.400,97.600 38.220,97.600 38.000 C 97.600 37.780,98.230 37.600,99.000 37.600 C 99.770 37.600,100.400 37.780,100.400 38.000 M65.200 38.800 C 65.200 39.026,66.333 39.200,67.800 39.200 C 69.267 39.200,70.400 39.026,70.400 38.800 C 70.400 38.574,69.267 38.400,67.800 38.400 C 66.333 38.400,65.200 38.574,65.200 38.800 M85.200 38.811 C 85.924 39.291,92.000 39.231,92.000 38.744 C 92.000 38.555,90.335 38.403,88.300 38.406 C 85.706 38.410,84.779 38.531,85.200 38.811 M100.000 39.975 C 100.000 40.166,100.534 40.508,101.186 40.735 C 103.534 41.554,103.323 44.121,100.854 44.786 C 97.545 45.676,96.010 43.699,97.575 40.564 C 98.399 38.915,100.000 38.526,100.000 39.975 M88.191 45.371 C 87.894 48.939,87.255 50.014,85.769 49.443 C 84.444 48.935,85.306 42.470,86.798 41.726 C 88.283 40.986,88.507 41.574,88.191 45.371 M109.120 43.328 C 109.616 44.700,109.773 46.307,109.373 45.906 C 108.957 45.490,108.033 42.000,108.339 42.000 C 108.504 42.000,108.855 42.598,109.120 43.328 M49.937 42.900 C 49.883 43.175,49.968 44.324,50.127 45.454 C 50.582 48.695,49.390 50.675,47.994 48.993 C 47.318 48.178,47.345 45.205,48.034 44.779 C 48.332 44.595,48.462 44.329,48.322 44.188 C 48.050 43.916,49.185 42.489,49.718 42.433 C 49.892 42.415,49.991 42.625,49.937 42.900 M93.127 43.703 C 93.196 44.307,93.076 44.800,92.859 44.800 C 92.643 44.800,92.181 44.909,91.833 45.043 C 91.159 45.301,90.966 44.275,91.450 43.013 C 91.840 41.999,92.984 42.470,93.127 43.703 M54.899 45.356 C 56.210 46.352,56.322 50.400,55.038 50.400 C 54.328 50.400,53.340 48.824,53.409 47.800 C 53.439 47.360,53.494 46.505,53.532 45.900 C 53.608 44.678,53.869 44.574,54.899 45.356 M82.150 46.050 C 82.626 48.431,82.466 49.671,81.700 49.526 C 80.451 49.289,80.404 44.891,81.650 44.815 C 81.788 44.807,82.013 45.363,82.150 46.050 M61.855 45.721 C 62.181 46.048,60.745 48.846,60.130 49.082 C 58.938 49.540,57.716 46.421,58.700 45.431 C 58.981 45.148,61.515 45.381,61.855 45.721 M76.967 45.443 C 77.840 45.778,77.762 46.261,76.636 47.474 C 75.481 48.721,74.347 48.517,74.689 47.124 C 75.108 45.413,75.718 44.963,76.967 45.443 M102.400 46.454 C 109.598 48.804,117.720 56.268,119.397 62.073 C 119.544 62.583,119.987 63.720,120.381 64.600 C 121.508 67.120,121.868 75.277,120.975 78.055 C 116.290 92.616,107.195 100.037,94.674 99.516 C 90.766 99.353,90.605 98.926,93.039 95.179 C 94.103 93.541,95.217 91.750,95.514 91.201 C 95.812 90.651,96.285 89.931,96.566 89.601 C 97.728 88.232,99.527 82.796,100.073 79.000 C 100.758 74.244,100.404 63.497,99.544 62.966 C 99.355 62.849,99.196 62.358,99.191 61.876 C 99.178 60.740,97.331 56.244,96.805 56.068 C 96.582 55.994,96.400 55.755,96.400 55.537 C 96.400 55.319,95.590 53.888,94.600 52.358 C 93.610 50.827,92.800 49.435,92.800 49.263 C 92.800 49.091,92.411 48.533,91.935 48.023 C 89.452 45.357,96.024 44.372,102.400 46.454 M44.113 48.400 C 44.439 48.400,44.437 48.523,44.107 48.853 C 43.583 49.377,42.400 49.042,42.400 48.370 C 42.400 48.119,42.684 48.023,43.033 48.157 C 43.381 48.291,43.867 48.400,44.113 48.400 M116.479 52.367 C 116.905 52.864,117.924 53.233,119.374 53.414 C 121.238 53.647,121.754 53.893,122.459 54.883 C 123.149 55.852,123.501 56.027,124.353 55.824 C 126.358 55.347,126.510 55.402,127.024 56.800 C 127.833 58.998,127.750 60.400,126.811 60.400 C 126.257 60.400,125.923 60.786,125.688 61.700 C 125.062 64.128,119.600 63.545,119.600 61.050 C 119.600 60.729,119.825 60.384,120.100 60.283 C 120.496 60.138,120.493 59.986,120.083 59.553 C 119.647 59.092,119.502 59.100,119.151 59.603 C 118.836 60.056,118.793 59.937,118.973 59.111 C 119.145 58.320,119.069 58.075,118.696 58.219 C 118.168 58.421,116.647 56.286,117.039 55.894 C 117.253 55.681,116.513 54.633,115.085 53.125 C 114.692 52.710,114.197 52.478,113.985 52.609 C 113.773 52.740,113.600 52.687,113.600 52.490 C 113.600 51.368,115.552 51.284,116.479 52.367 M59.200 52.607 C 70.505 52.908,70.349 52.907,80.972 52.749 C 91.661 52.589,92.335 52.702,91.837 54.560 C 91.712 55.022,91.608 56.525,91.605 57.900 C 91.599 60.920,91.391 60.972,89.637 58.399 C 88.888 57.300,88.255 56.400,88.232 56.400 C 88.208 56.400,87.204 56.040,86.000 55.600 C 78.318 52.792,69.293 56.596,69.516 62.548 C 69.985 75.106,70.089 75.583,72.404 75.814 C 73.335 75.906,74.345 76.188,74.648 76.440 C 75.686 77.301,75.053 80.400,73.840 80.400 C 73.547 80.400,72.049 81.030,70.511 81.799 C 67.963 83.074,67.594 83.157,66.357 82.729 C 64.365 82.040,60.637 79.390,60.009 78.217 C 59.403 77.085,58.497 76.882,58.145 77.799 C 58.019 78.128,58.757 80.105,59.785 82.191 C 61.843 86.366,61.642 86.222,66.791 87.198 C 69.702 87.750,69.701 87.751,71.399 86.401 C 72.229 85.741,73.575 85.022,74.390 84.803 C 77.682 83.916,78.375 80.812,76.690 74.495 L 75.703 70.790 76.751 70.553 C 82.641 69.225,86.400 67.682,86.400 66.593 C 86.400 65.836,85.470 65.845,82.404 66.630 C 80.061 67.231,79.812 67.221,77.192 66.425 C 73.279 65.237,73.472 64.934,78.119 64.969 C 81.688 64.996,82.382 64.887,83.647 64.100 C 86.370 62.406,88.400 63.523,90.409 67.820 C 92.966 73.288,92.526 76.378,88.432 81.720 C 86.653 84.042,86.479 84.442,86.813 85.460 C 87.019 86.087,87.297 88.184,87.431 90.121 C 87.737 94.536,88.403 94.555,89.113 90.169 C 89.598 87.172,90.463 85.600,91.626 85.600 C 92.656 85.600,92.215 96.357,91.170 96.733 C 90.967 96.807,90.794 97.617,90.787 98.533 C 90.768 100.847,87.978 103.465,83.117 105.730 C 82.301 106.110,81.526 106.597,81.393 106.811 C 81.062 107.347,59.600 107.337,59.600 106.800 C 59.600 106.580,59.073 106.400,58.429 106.400 C 57.784 106.400,56.987 106.130,56.657 105.800 C 56.327 105.470,55.870 105.200,55.641 105.200 C 55.412 105.200,55.326 104.885,55.450 104.500 C 55.621 103.968,55.582 103.930,55.289 104.341 C 54.822 104.995,53.012 104.228,53.429 103.553 C 53.567 103.329,53.302 103.047,52.840 102.926 C 52.378 102.806,52.000 102.540,52.000 102.335 C 52.000 102.131,51.402 102.076,50.672 102.213 C 49.581 102.418,49.170 102.279,48.372 101.438 C 47.837 100.875,47.215 100.411,46.988 100.407 C 46.762 100.403,46.317 100.040,46.000 99.600 C 45.683 99.160,45.181 98.800,44.885 98.800 C 44.518 98.800,44.432 98.529,44.616 97.950 C 44.789 97.405,44.736 97.192,44.469 97.358 C 43.987 97.655,43.380 94.349,43.743 93.405 C 44.045 92.617,45.373 92.630,46.170 93.427 C 47.049 94.306,48.293 93.796,48.593 92.434 C 48.729 91.813,49.233 91.129,49.714 90.915 C 50.579 90.529,50.576 90.515,49.343 89.363 C 48.468 88.544,47.953 87.548,47.605 86.000 C 47.333 84.790,46.820 83.350,46.466 82.800 C 44.834 80.266,43.986 77.879,44.240 76.528 C 44.428 75.523,44.310 74.963,43.784 74.383 C 43.155 73.687,43.052 72.461,42.890 63.660 C 42.657 51.062,42.345 51.801,47.744 52.149 C 49.975 52.293,55.130 52.499,59.200 52.607 M12.224 54.647 C 11.987 55.592,12.180 56.388,12.544 55.967 C 12.921 55.529,13.172 53.600,12.851 53.600 C 12.651 53.600,12.368 54.071,12.224 54.647 M49.758 55.550 C 44.707 55.905,43.633 56.802,43.613 60.684 C 43.600 63.128,44.463 64.800,45.738 64.800 C 45.950 64.800,46.705 65.243,47.415 65.784 C 48.125 66.326,49.492 67.059,50.453 67.414 C 51.414 67.770,52.494 68.215,52.853 68.404 C 53.212 68.593,54.901 69.036,56.607 69.389 C 60.731 70.241,61.036 70.447,61.593 72.772 C 62.115 74.945,62.774 75.741,63.878 75.528 C 64.605 75.388,64.994 73.064,65.847 63.753 C 66.499 56.627,62.615 54.646,49.758 55.550 M37.232 56.900 C 37.257 57.297,37.305 57.297,37.466 56.898 C 37.577 56.621,37.842 56.502,38.054 56.633 C 38.551 56.940,37.696 58.000,36.951 58.000 C 36.648 58.000,36.400 57.640,36.400 57.200 C 36.400 56.343,37.179 56.062,37.232 56.900 M11.378 57.635 C 11.231 57.874,11.310 58.270,11.555 58.515 C 11.882 58.842,12.000 58.726,12.000 58.080 C 12.000 57.114,11.792 56.965,11.378 57.635 M59.404 58.444 C 62.784 60.033,61.638 60.387,53.100 60.395 C 46.566 60.400,45.749 60.164,48.097 58.950 C 51.255 57.317,56.507 57.082,59.404 58.444 M85.540 58.039 C 86.982 58.542,87.172 59.373,85.989 60.006 C 84.917 60.580,77.985 60.434,76.825 59.813 L 75.914 59.326 77.011 58.463 C 78.263 57.478,83.223 57.231,85.540 58.039 M97.972 59.724 C 97.945 60.569,97.931 60.571,97.600 59.800 C 97.127 58.699,97.127 58.308,97.600 58.600 C 97.820 58.736,97.987 59.242,97.972 59.724 M35.206 60.900 C 35.211 61.270,35.301 61.260,35.554 60.861 C 36.180 59.873,37.400 60.497,37.400 61.805 C 37.400 62.897,37.271 63.011,35.900 63.124 C 34.424 63.246,34.400 63.225,34.400 61.824 C 34.400 61.041,34.580 60.400,34.800 60.400 C 35.020 60.400,35.203 60.625,35.206 60.900 M52.140 63.374 C 54.238 64.331,56.474 64.795,58.989 64.798 C 61.277 64.800,61.340 64.827,60.479 65.430 C 57.842 67.277,52.441 66.993,49.925 64.876 C 47.766 63.059,49.246 62.056,52.140 63.374 M99.491 65.073 C 99.576 65.329,99.219 65.416,98.579 65.294 C 97.813 65.147,97.672 65.000,98.063 64.753 C 98.699 64.351,99.295 64.484,99.491 65.073 M37.293 67.900 C 39.387 70.273,38.397 71.988,35.100 71.701 L 32.800 71.501 32.800 69.617 C 32.800 68.581,32.920 67.613,33.067 67.467 C 33.641 66.892,36.679 67.204,37.293 67.900 M98.768 68.300 C 99.156 68.967,99.176 68.967,99.188 68.300 C 99.195 67.915,99.380 67.600,99.600 67.600 C 100.417 67.600,99.985 69.111,99.100 69.348 C 97.237 69.847,96.000 69.642,96.000 68.833 C 96.000 67.544,98.093 67.141,98.768 68.300 M33.200 69.600 C 33.200 70.480,33.355 71.200,33.545 71.200 C 33.735 71.200,33.891 70.480,33.891 69.600 C 33.891 68.720,33.735 68.000,33.545 68.000 C 33.355 68.000,33.200 68.720,33.200 69.600 M127.672 68.903 C 127.846 69.176,127.991 69.895,127.994 70.500 L 128.000 71.600 125.000 71.600 C 122.870 71.600,121.998 71.455,121.995 71.100 C 121.992 70.825,121.891 70.234,121.770 69.786 C 121.356 68.243,126.742 67.438,127.672 68.903 M10.800 71.480 C 10.800 72.736,10.650 73.589,10.466 73.380 C 10.148 73.018,10.307 69.200,10.640 69.200 C 10.728 69.200,10.800 70.226,10.800 71.480 M9.600 71.413 C 9.600 73.372,8.873 74.091,7.795 73.196 C 6.588 72.194,7.024 69.600,8.400 69.600 C 9.557 69.600,9.600 69.665,9.600 71.413 M100.000 72.000 C 100.000 72.220,99.505 72.382,98.900 72.360 L 97.800 72.320 98.800 72.000 C 99.350 71.824,99.845 71.662,99.900 71.640 C 99.955 71.618,100.000 71.780,100.000 72.000 M100.000 76.043 C 100.000 76.286,99.730 76.382,99.400 76.255 C 99.070 76.129,98.800 76.199,98.800 76.413 C 98.800 76.626,98.530 76.800,98.200 76.800 C 97.575 76.800,97.406 76.327,97.867 75.867 C 98.307 75.426,100.000 75.566,100.000 76.043 M125.120 79.000 C 125.187 79.678,125.668 80.556,126.225 81.019 C 127.558 82.127,126.834 84.627,124.440 87.183 L 122.770 88.966 121.407 88.232 C 120.636 87.816,119.602 87.583,119.022 87.694 C 117.994 87.890,117.556 87.122,118.400 86.600 C 118.620 86.464,118.800 86.003,118.800 85.576 C 118.800 85.149,118.980 84.800,119.200 84.800 C 119.420 84.800,119.600 84.427,119.600 83.971 C 119.600 83.516,119.870 82.873,120.200 82.543 C 120.530 82.213,120.800 81.426,120.800 80.795 C 120.800 80.164,120.980 79.536,121.200 79.400 C 121.420 79.264,121.600 78.793,121.600 78.353 C 121.600 76.843,124.966 77.462,125.120 79.000 M36.318 79.524 C 37.490 80.426,38.880 85.540,38.537 87.692 C 38.288 89.260,37.200 90.689,37.200 89.449 C 37.200 89.092,37.374 88.800,37.587 88.800 C 37.801 88.800,37.858 88.494,37.714 88.120 C 37.551 87.695,37.393 87.620,37.293 87.920 C 36.895 89.116,36.510 88.189,36.479 85.956 C 36.443 83.433,35.855 82.262,34.389 81.797 C 33.944 81.655,33.625 81.062,33.522 80.186 C 33.332 78.555,34.653 78.243,36.318 79.524 M34.210 80.383 C 34.045 80.651,34.107 81.067,34.348 81.308 C 34.963 81.923,35.352 81.400,34.892 80.579 C 34.612 80.079,34.431 80.027,34.210 80.383 M121.200 81.200 C 121.200 81.640,121.380 82.000,121.600 82.000 C 121.820 82.000,122.000 81.640,122.000 81.200 C 122.000 80.760,121.820 80.400,121.600 80.400 C 121.380 80.400,121.200 80.760,121.200 81.200 M98.435 83.522 C 98.196 83.601,98.000 84.102,98.000 84.633 C 98.000 85.226,97.768 85.600,97.400 85.600 C 96.469 85.600,96.664 83.477,97.700 82.334 L 98.600 81.342 98.735 82.359 C 98.809 82.919,98.674 83.442,98.435 83.522 M71.033 89.613 C 69.336 91.441,68.401 91.672,64.606 91.201 C 59.197 90.529,52.617 92.522,52.880 94.753 C 53.074 96.401,55.431 96.896,56.558 95.526 C 57.953 93.830,59.028 93.462,61.075 93.977 C 65.519 95.096,68.813 95.237,71.775 94.434 C 78.375 92.646,81.279 93.093,78.700 95.500 C 74.825 99.117,66.189 100.014,60.400 97.400 C 56.421 95.603,56.400 95.606,56.400 97.956 C 56.400 100.850,60.005 103.577,63.091 103.018 C 63.697 102.908,66.624 102.790,69.596 102.756 C 76.359 102.679,79.074 101.298,81.433 96.736 C 81.844 95.942,82.325 95.600,83.033 95.600 C 85.465 95.600,84.200 92.396,81.200 90.959 C 75.138 88.055,72.770 87.742,71.033 89.613 M122.400 95.298 C 122.400 96.272,120.094 100.289,119.159 100.944 C 118.743 101.235,118.192 102.087,117.934 102.837 C 117.677 103.587,117.076 104.830,116.600 105.600 C 116.124 106.370,115.520 107.622,115.259 108.383 C 114.727 109.933,113.324 111.600,112.553 111.600 C 112.014 111.600,104.800 104.781,104.800 104.272 C 104.800 103.369,108.615 102.400,112.171 102.400 C 117.611 102.400,118.196 101.536,115.324 97.744 C 114.743 96.978,114.277 95.676,114.125 94.399 L 113.878 92.310 115.124 92.583 C 115.809 92.734,116.691 92.677,117.085 92.456 C 118.044 91.920,122.400 94.249,122.400 95.298 M15.375 96.600 C 15.221 97.429,15.269 97.629,15.533 97.246 C 15.841 96.798,16.001 96.855,16.371 97.546 C 16.671 98.107,16.686 98.400,16.414 98.400 C 16.186 98.400,16.000 98.692,16.000 99.049 C 16.000 99.556,16.121 99.598,16.553 99.239 C 17.182 98.717,17.814 99.729,17.339 100.498 C 17.184 100.749,17.266 100.806,17.538 100.638 C 17.808 100.472,18.000 100.599,18.000 100.943 C 18.000 101.268,18.193 101.598,18.429 101.676 C 18.887 101.829,19.031 106.103,18.601 106.798 C 18.206 107.438,17.733 106.961,16.248 104.427 C 14.509 101.461,12.708 95.766,13.348 95.262 C 14.831 94.097,15.731 94.690,15.375 96.600 M96.094 102.300 C 96.393 105.666,96.086 107.200,95.112 107.200 C 94.549 107.200,94.386 107.014,94.557 106.567 C 94.691 106.219,94.800 104.599,94.800 102.967 C 94.800 99.180,95.771 98.679,96.094 102.300 M100.000 102.400 C 100.000 103.280,99.820 104.000,99.600 104.000 C 99.380 104.000,99.200 103.280,99.200 102.400 C 99.200 101.520,99.380 100.800,99.600 100.800 C 99.820 100.800,100.000 101.520,100.000 102.400 M57.000 105.200 C 56.864 105.420,57.123 105.600,57.576 105.600 C 58.029 105.600,58.400 105.420,58.400 105.200 C 58.400 104.980,58.141 104.800,57.824 104.800 C 57.507 104.800,57.136 104.980,57.000 105.200 M61.200 106.206 C 61.200 106.634,61.554 106.786,62.400 106.721 C 63.709 106.622,63.965 106.226,62.967 105.843 C 61.892 105.430,61.200 105.573,61.200 106.206 M23.358 110.068 C 23.164 110.383,23.287 110.452,23.734 110.281 C 24.216 110.096,24.400 110.242,24.400 110.813 C 24.400 111.584,24.970 111.893,25.301 111.300 C 25.393 111.135,25.409 111.238,25.336 111.530 C 25.262 111.821,25.468 112.325,25.792 112.649 C 26.117 112.974,26.563 113.546,26.784 113.920 C 27.107 114.467,27.254 114.496,27.537 114.066 C 27.806 113.659,27.942 113.737,28.115 114.396 C 28.343 115.269,27.238 116.800,26.380 116.800 C 24.785 116.800,20.533 110.800,21.467 109.867 C 21.952 109.381,23.669 109.564,23.358 110.068 M110.762 114.211 C 110.959 116.352,108.821 116.794,107.013 114.987 C 105.648 113.621,105.242 112.800,105.932 112.800 C 106.115 112.800,106.504 112.353,106.796 111.807 L 107.328 110.814 109.026 112.307 C 109.960 113.128,110.742 113.985,110.762 114.211 M105.822 117.003 L 106.600 118.461 105.600 119.252 C 105.050 119.687,104.267 120.317,103.860 120.652 C 103.453 120.986,102.283 121.719,101.260 122.281 C 100.237 122.842,99.040 123.618,98.600 124.006 C 95.933 126.359,92.246 127.607,91.589 126.380 C 90.790 124.886,91.247 123.398,92.500 123.416 C 93.105 123.424,93.600 123.259,93.600 123.047 C 93.600 122.366,94.902 121.200,95.662 121.200 C 96.068 121.200,96.400 121.013,96.400 120.784 C 96.400 120.556,96.794 120.736,97.275 121.184 C 98.642 122.458,100.326 121.499,99.388 119.981 C 98.705 118.875,99.601 117.500,100.845 117.749 C 101.945 117.969,102.029 117.912,101.799 117.095 C 101.605 116.403,101.641 116.336,101.958 116.798 C 102.406 117.451,103.560 116.379,103.587 115.286 C 103.610 114.378,104.986 115.436,105.822 117.003 M34.702 119.548 C 35.912 120.195,35.911 121.822,34.700 122.151 C 34.048 122.327,33.193 121.969,31.600 120.851 C 29.219 119.181,28.895 118.421,30.300 117.805 C 30.795 117.588,31.200 117.180,31.200 116.898 C 31.200 116.616,31.786 116.989,32.502 117.726 C 33.218 118.464,34.208 119.283,34.702 119.548 M40.021 123.200 C 40.526 123.200,40.699 123.398,40.545 123.798 C 40.360 124.280,40.560 124.348,41.565 124.147 C 42.529 123.954,42.766 124.023,42.604 124.449 C 42.456 124.836,42.768 125.026,43.651 125.088 C 45.234 125.199,45.355 125.329,45.040 126.581 C 44.710 127.896,43.831 127.871,42.186 126.500 C 41.460 125.895,40.441 125.107,39.922 124.748 C 39.402 124.390,38.956 123.670,38.930 123.148 C 38.903 122.627,38.968 122.425,39.074 122.700 C 39.180 122.975,39.606 123.200,40.021 123.200 M83.313 128.500 C 82.864 132.441,83.000 132.244,80.707 132.279 C 79.218 132.301,78.480 132.123,78.124 131.655 C 77.476 130.804,77.462 129.616,78.100 129.543 C 78.375 129.512,77.880 129.358,77.000 129.200 L 75.400 128.914 76.876 128.857 C 77.688 128.826,78.464 128.620,78.600 128.400 C 78.736 128.180,79.546 128.000,80.400 128.000 C 81.254 128.000,82.064 127.820,82.200 127.600 C 82.772 126.674,83.458 127.229,83.313 128.500 M53.800 128.400 C 53.936 128.620,55.117 128.800,56.424 128.800 C 57.731 128.800,58.800 128.967,58.800 129.172 C 58.800 129.377,59.205 129.622,59.700 129.718 C 60.195 129.813,59.764 129.916,58.743 129.946 C 56.699 130.005,56.400 130.348,56.400 132.633 C 56.400 134.242,56.014 134.321,53.675 133.191 C 51.953 132.358,51.029 128.877,52.500 128.760 C 52.775 128.738,52.550 128.576,52.000 128.400 C 51.045 128.094,51.057 128.078,52.276 128.040 C 52.978 128.018,53.664 128.180,53.800 128.400 M54.868 129.600 C 55.142 130.428,56.248 130.574,56.537 129.820 C 56.668 129.479,56.601 129.200,56.387 129.200 C 56.174 129.200,56.000 129.402,56.000 129.649 C 56.000 129.941,55.767 129.906,55.335 129.549 C 54.765 129.078,54.698 129.086,54.868 129.600 M69.371 131.429 C 70.321 132.378,70.173 133.860,69.100 134.148 C 67.174 134.664,66.492 134.439,66.039 133.140 C 65.417 131.354,65.452 131.269,66.900 131.089 C 67.615 131.001,68.322 130.899,68.471 130.864 C 68.621 130.829,69.026 131.083,69.371 131.429 " stroke="none" fill="#e2e0d9" fill-rule="evenodd"></path></g></svg>